<svg width="152" height="34" viewBox="0 0 152 34" fill="none" xmlns="http://www.w3.org/2000/svg">
<g clip-path="url(#clip0_113_24982)">
<path d="M46.4085 9.43555C46.6241 9.43555 46.8397 9.48826 47.1092 9.59369C47.3787 9.69911 47.5404 9.85725 47.6482 10.0154L53.2 18.4495L52.0681 18.3968L57.7815 10.0681C58.051 9.6464 58.4284 9.48826 58.9135 9.48826C59.2908 9.48826 59.6142 9.59369 59.8837 9.85725C60.1532 10.1208 60.3149 10.4371 60.3149 10.8588V23.8262C60.3149 24.1952 60.2071 24.5642 59.9376 24.7751C59.6681 25.0386 59.3447 25.1441 58.9135 25.1441C58.4823 25.1441 58.1589 25.0386 57.8893 24.7751C57.6198 24.5115 57.512 24.1952 57.512 23.8262V13.2836L58.4284 13.4945L53.739 20.4526C53.5773 20.6107 53.4156 20.7689 53.2 20.8743C52.9844 20.9797 52.7688 21.0324 52.5532 21.0324C52.3376 21.0324 52.1759 20.9797 51.9603 20.8743C51.7447 20.7689 51.583 20.6107 51.4213 20.4526L47.0553 13.7053L47.6482 12.4929V23.8262C47.6482 24.1952 47.5404 24.5642 47.2709 24.7751C47.0014 25.0386 46.7319 25.1441 46.3007 25.1441C45.9234 25.1441 45.6 25.0386 45.3844 24.7751C45.1149 24.5115 45.0071 24.1952 45.0071 23.8262V10.8061C45.0071 10.4371 45.1688 10.1208 45.4383 9.85725C45.6539 9.59369 46.0312 9.43555 46.4085 9.43555Z" fill="#009899"/>
<path d="M69.1546 25.3549C67.861 25.3549 66.7291 25.0913 65.7589 24.5642C64.7886 24.0371 64.0879 23.2991 63.5489 22.4029C63.0099 21.5068 62.7943 20.4526 62.7943 19.2929C62.7943 17.975 63.0638 16.8153 63.6567 15.8665C64.1957 14.9177 64.9503 14.1797 65.8667 13.7053C66.783 13.1781 67.6993 12.9673 68.7234 12.9673C69.478 12.9673 70.2326 13.1254 70.9333 13.4417C71.634 13.758 72.2269 14.1797 72.7659 14.7068C73.305 15.234 73.7362 15.8665 74.0596 16.6045C74.383 17.3425 74.5447 18.0805 74.5447 18.8712C74.5447 19.2402 74.383 19.5037 74.1135 19.7673C73.844 20.0309 73.5206 20.0836 73.1432 20.0836H64.4113L63.7106 17.8696H72.1191L71.634 18.2913V17.7115C71.5801 17.2898 71.4723 16.8681 71.1489 16.5518C70.8794 16.1828 70.5021 15.9192 70.0709 15.7084C69.6397 15.4975 69.2085 15.3921 68.7234 15.3921C68.2383 15.3921 67.861 15.4448 67.4298 15.5502C67.0525 15.6557 66.6752 15.8665 66.4057 16.1301C66.1362 16.3936 65.8667 16.8153 65.705 17.2898C65.5432 17.7642 65.4354 18.3967 65.4354 19.082C65.4354 19.8727 65.5971 20.558 65.9745 21.1378C66.3518 21.7177 66.783 22.1394 67.322 22.4029C67.861 22.7192 68.4539 22.8246 69.0468 22.8246C69.5858 22.8246 70.0709 22.7719 70.3943 22.6665C70.7177 22.5611 70.9872 22.4557 71.2028 22.3502C71.4184 22.2448 71.5801 22.1394 71.7418 22.034C72.0113 21.8758 72.2808 21.8231 72.4964 21.8231C72.8198 21.8231 73.0894 21.9285 73.3589 22.1394C73.5745 22.3502 73.6823 22.6138 73.6823 22.9301C73.6823 23.3518 73.4667 23.7208 73.0354 24.0371C72.6581 24.3533 72.0652 24.6696 71.3645 24.8805C70.6638 25.0913 69.9092 25.3549 69.1546 25.3549Z" fill="#009899"/>
<path d="M86.6723 8.59229C87.0496 8.59229 87.373 8.69771 87.6425 8.96128C87.912 9.22484 88.0198 9.54112 88.0198 9.96283V23.8264C88.0198 24.1954 87.912 24.5644 87.6425 24.7752C87.373 25.0388 87.0496 25.1442 86.6723 25.1442C86.295 25.1442 85.9716 25.0388 85.7021 24.7752C85.4326 24.5117 85.3248 24.1954 85.3248 23.8264V22.6667L85.8099 22.8776C85.8099 23.0884 85.7021 23.2993 85.4865 23.5628C85.2709 23.8264 85.0013 24.09 84.624 24.4062C84.2467 24.6698 83.8155 24.8807 83.3304 25.0915C82.8453 25.3024 82.3063 25.3551 81.7134 25.3551C80.6354 25.3551 79.7191 25.0915 78.8567 24.5644C77.9943 24.0372 77.3474 23.2993 76.8084 22.3504C76.3233 21.4016 76.0538 20.3473 76.0538 19.1349C76.0538 17.9225 76.3233 16.8155 76.8084 15.9194C77.2935 14.9706 77.9943 14.2326 78.8028 13.7055C79.6652 13.1783 80.5815 12.9148 81.6056 12.9148C82.2524 12.9148 82.8453 13.0202 83.4382 13.231C83.9772 13.4419 84.4623 13.6528 84.8935 13.969C85.3248 14.2853 85.5943 14.5489 85.8099 14.8652C86.0255 15.1814 86.1333 15.445 86.1333 15.6559L85.3248 15.9721V9.96283C85.3248 9.59384 85.4326 9.22484 85.7021 9.01399C85.9716 8.69771 86.295 8.59229 86.6723 8.59229ZM82.0907 22.9303C82.7375 22.9303 83.3304 22.7721 83.8694 22.4559C84.3545 22.1396 84.7857 21.6652 85.0552 21.138C85.3248 20.5582 85.4865 19.9256 85.4865 19.2403C85.4865 18.5024 85.3248 17.8698 85.0552 17.29C84.7857 16.7101 84.3545 16.2884 83.8694 15.9194C83.3843 15.6031 82.7914 15.445 82.0907 15.445C81.4439 15.445 80.851 15.6031 80.3659 15.9194C79.8808 16.2357 79.4496 16.7101 79.1801 17.29C78.9106 17.8698 78.7489 18.5024 78.7489 19.2403C78.7489 19.9256 78.9106 20.5582 79.1801 21.138C79.4496 21.7179 79.8808 22.1396 80.3659 22.4559C80.851 22.7721 81.39 22.9303 82.0907 22.9303Z" fill="#009899"/>
<path d="M92.2241 11.7025C91.685 11.7025 91.3616 11.5971 91.146 11.439C90.9304 11.2808 90.8226 10.9645 90.8226 10.5428V10.1211C90.8226 9.69943 90.9304 9.38315 91.1999 9.22501C91.4155 9.06687 91.7928 9.01416 92.2779 9.01416C92.817 9.01416 93.1943 9.11959 93.4099 9.27773C93.6255 9.43587 93.7333 9.75214 93.7333 10.1738V10.5956C93.7333 11.0173 93.6255 11.3335 93.4099 11.4917C93.1404 11.6498 92.7631 11.7025 92.2241 11.7025ZM93.6255 23.7738C93.6255 24.1428 93.5177 24.5118 93.2482 24.7227C92.9787 24.9863 92.6553 25.0917 92.2779 25.0917C91.9006 25.0917 91.5772 24.9863 91.3077 24.7227C91.0382 24.4591 90.9304 24.1428 90.9304 23.7738V14.549C90.9304 14.1801 91.0382 13.8111 91.3077 13.6002C91.5772 13.3366 91.9006 13.2312 92.2779 13.2312C92.6553 13.2312 92.9787 13.3366 93.2482 13.6002C93.5177 13.8638 93.6255 14.1801 93.6255 14.549V23.7738Z" fill="#009899"/>
<path d="M95.7277 23.2991C95.566 23.0882 95.5121 22.8247 95.5121 22.5084C95.5121 22.1921 95.7277 21.8758 96.105 21.665C96.3745 21.5068 96.5901 21.4541 96.8596 21.4541C97.1291 21.4541 97.3986 21.6123 97.6681 21.8758C98.0993 22.2975 98.5844 22.6665 99.0695 22.8774C99.5546 23.141 100.148 23.2464 100.902 23.2464C101.118 23.2464 101.387 23.1937 101.657 23.141C101.926 23.0882 102.196 22.9828 102.357 22.772C102.573 22.5611 102.681 22.2975 102.681 21.9285C102.681 21.6123 102.573 21.3487 102.357 21.1378C102.142 20.927 101.818 20.7689 101.441 20.6634C101.064 20.558 100.633 20.3999 100.201 20.2944C99.7163 20.1363 99.2312 20.0309 98.7461 19.8727C98.261 19.7146 97.7759 19.5037 97.3986 19.2402C96.9674 18.9766 96.644 18.6076 96.3745 18.1859C96.105 17.7642 95.9972 17.1844 95.9972 16.5518C95.9972 15.8138 96.2128 15.1813 96.644 14.6541C97.0752 14.127 97.6142 13.7053 98.3149 13.4417C99.0156 13.1782 99.7163 13.02 100.471 13.02C100.956 13.02 101.441 13.0727 101.98 13.1782C102.519 13.2836 103.004 13.4944 103.489 13.7053C103.974 13.9689 104.352 14.2851 104.675 14.6541C104.837 14.865 104.945 15.1285 104.999 15.4448C105.053 15.7611 104.891 16.0247 104.567 16.2882C104.352 16.4464 104.082 16.5518 103.759 16.4991C103.435 16.4991 103.22 16.3937 103.004 16.1828C102.735 15.8665 102.411 15.603 101.98 15.3921C101.549 15.1813 101.064 15.0758 100.471 15.0758C100.255 15.0758 99.9858 15.0758 99.7163 15.1285C99.4468 15.1813 99.2312 15.2867 99.0156 15.4448C98.8 15.603 98.6922 15.8665 98.6922 16.2882C98.6922 16.6572 98.8 16.9208 99.0156 17.1316C99.2312 17.3425 99.5546 17.5006 99.9319 17.6061C100.309 17.7115 100.74 17.8696 101.172 17.9751C101.603 18.0805 102.088 18.2386 102.573 18.3968C103.058 18.5549 103.489 18.7658 103.867 19.0293C104.244 19.2929 104.567 19.6619 104.837 20.0836C105.106 20.5053 105.214 21.0324 105.214 21.7177C105.214 22.4557 104.999 23.141 104.514 23.6681C104.082 24.1952 103.489 24.6169 102.789 24.8805C102.088 25.1441 101.387 25.3022 100.687 25.3022C99.7702 25.3022 98.9078 25.144 97.9915 24.8278C97.0752 24.5115 96.3206 24.0898 95.7277 23.2991Z" fill="#009899"/>
<path d="M108.879 25.144C108.502 25.144 108.179 25.0386 107.909 24.775C107.64 24.5115 107.532 24.1952 107.532 23.8262V14.5487C107.532 14.1797 107.64 13.8107 107.909 13.5998C108.179 13.3363 108.502 13.2309 108.879 13.2309C109.257 13.2309 109.58 13.3363 109.85 13.5998C110.119 13.8634 110.227 14.1797 110.227 14.5487V16.6572L110.065 15.1812C110.227 14.8122 110.442 14.496 110.712 14.2324C110.982 13.9688 111.305 13.7053 111.628 13.5471C111.952 13.3363 112.329 13.2309 112.706 13.1254C113.084 13.02 113.461 12.9673 113.838 12.9673C114.269 12.9673 114.701 13.0727 114.97 13.3363C115.294 13.5998 115.455 13.8634 115.455 14.2324C115.455 14.7068 115.347 15.0758 115.078 15.2867C114.808 15.4975 114.539 15.6029 114.216 15.6029C113.946 15.6029 113.677 15.5502 113.407 15.4448C113.138 15.3394 112.976 15.2867 112.652 15.2867C112.383 15.2867 112.113 15.3394 111.79 15.4975C111.521 15.6029 111.251 15.8138 111.035 16.0774C110.82 16.3409 110.604 16.6572 110.442 17.0789C110.281 17.5006 110.227 17.9223 110.227 18.5022V23.8262C110.227 24.1952 110.119 24.5642 109.85 24.775C109.58 25.0386 109.257 25.144 108.879 25.144Z" fill="#009899"/>
<path d="M126.559 13.1782C126.936 13.1782 127.26 13.2836 127.529 13.5472C127.799 13.8108 127.906 14.1271 127.906 14.4961V20.1891C127.906 21.7705 127.475 23.0356 126.559 23.9317C125.642 24.8278 124.349 25.3023 122.678 25.3023C121.007 25.3023 119.713 24.8278 118.797 23.9317C117.881 22.9829 117.45 21.7705 117.45 20.1891V14.5488C117.45 14.1798 117.557 13.8108 117.827 13.5999C118.096 13.3364 118.42 13.2309 118.797 13.2309C119.174 13.2309 119.498 13.3364 119.767 13.5999C120.037 13.8635 120.145 14.1798 120.145 14.5488V20.2418C120.145 21.1379 120.36 21.8232 120.738 22.2449C121.169 22.6666 121.762 22.9302 122.57 22.9302C123.433 22.9302 124.025 22.7193 124.457 22.2449C124.888 21.8232 125.05 21.1379 125.05 20.2418V14.5488C125.05 14.1798 125.157 13.8108 125.427 13.5999C125.804 13.2836 126.128 13.1782 126.559 13.1782Z" fill="#009899"/>
<path d="M137.231 12.9673C138.309 12.9673 139.279 13.2309 140.088 13.758C140.95 14.2851 141.597 15.0231 142.082 15.9192C142.567 16.8681 142.837 17.9223 142.837 19.1347C142.837 20.3471 142.567 21.4541 142.082 22.3502C141.597 23.2991 140.896 24.0371 140.088 24.5642C139.279 25.0913 138.309 25.3549 137.285 25.3549C136.692 25.3549 136.099 25.2495 135.56 25.0386C135.021 24.8277 134.536 24.6169 134.159 24.3006C133.728 23.9843 133.458 23.7208 133.243 23.4045C133.027 23.0882 132.919 22.8246 132.919 22.6138L133.62 22.2975V28.2014C133.62 28.5704 133.512 28.9394 133.243 29.1502C132.973 29.4138 132.65 29.5192 132.272 29.5192C131.895 29.5192 131.572 29.4138 131.302 29.1502C131.033 28.8867 130.925 28.5704 130.925 28.1487V14.5487C130.925 14.1797 131.033 13.8107 131.302 13.5998C131.572 13.3363 131.895 13.2309 132.272 13.2309C132.65 13.2309 132.973 13.3363 133.243 13.5998C133.512 13.8634 133.62 14.1797 133.62 14.5487V15.6557L133.243 15.4448C133.243 15.234 133.35 15.0231 133.566 14.7595C133.782 14.496 134.051 14.2324 134.428 13.9161C134.806 13.6526 135.237 13.389 135.722 13.2309C136.207 13.02 136.692 12.9673 137.231 12.9673ZM136.908 15.3921C136.261 15.3921 135.668 15.5502 135.129 15.8665C134.644 16.1828 134.213 16.6572 133.943 17.1843C133.674 17.7642 133.512 18.3967 133.512 19.082C133.512 19.7673 133.674 20.3998 133.943 20.9797C134.213 21.5595 134.644 21.9812 135.129 22.3502C135.614 22.6665 136.207 22.8246 136.908 22.8246C137.555 22.8246 138.147 22.6665 138.687 22.3502C139.172 22.034 139.549 21.5595 139.872 20.9797C140.196 20.3998 140.304 19.7673 140.304 19.082C140.304 18.344 140.142 17.7115 139.872 17.1843C139.603 16.6572 139.226 16.1828 138.687 15.8665C138.147 15.5502 137.555 15.3921 136.908 15.3921Z" fill="#009899"/>
<path d="M145.316 13.389H150.76C151.138 13.389 151.407 13.4944 151.677 13.758C151.946 14.0216 152.054 14.2851 152.054 14.6541C152.054 15.0231 151.946 15.2867 151.677 15.4975C151.407 15.7084 151.138 15.8665 150.76 15.8665H145.316C144.939 15.8665 144.67 15.7611 144.4 15.4975C144.13 15.234 144.023 14.9704 144.023 14.6014C144.023 14.2324 144.13 13.9689 144.4 13.758C144.616 13.4944 144.939 13.389 145.316 13.389ZM147.742 10.5952C148.119 10.5952 148.443 10.7006 148.712 10.9642C148.982 11.2278 149.089 11.5441 149.089 11.913V21.8758C149.089 22.0867 149.143 22.2448 149.197 22.403C149.251 22.5611 149.413 22.6138 149.521 22.7192C149.628 22.8247 149.844 22.8247 150.006 22.8247C150.167 22.8247 150.383 22.772 150.491 22.7192C150.652 22.6665 150.814 22.6138 151.03 22.6138C151.245 22.6138 151.461 22.7192 151.623 22.9301C151.784 23.141 151.892 23.4045 151.892 23.7208C151.892 24.1425 151.677 24.4588 151.191 24.7751C150.706 25.0386 150.221 25.1968 149.682 25.1968C149.359 25.1968 148.982 25.1968 148.604 25.1441C148.227 25.0913 147.85 24.9859 147.526 24.7751C147.203 24.5642 146.879 24.2479 146.664 23.8262C146.448 23.4045 146.34 22.8247 146.34 22.0867V11.9658C146.34 11.5968 146.448 11.2278 146.718 11.0169C146.987 10.8061 147.365 10.5952 147.742 10.5952Z" fill="#009899"/>
<path d="M22.5304 25.9349C22.0992 25.2497 22.3148 24.3008 22.9616 23.8264C25.2254 22.1923 29.7531 18.2915 28.2978 14.0218C27.9205 12.9148 27.3276 12.1768 26.4112 11.9132C24.1474 11.1225 20.4822 12.8621 19.2425 13.6001L18.2183 14.2326C17.6793 14.5489 17.0325 14.2326 16.9247 13.6528L16.763 12.4404C16.5474 10.8063 15.4155 6.11478 12.7744 4.53339C11.5886 3.84811 10.1871 3.74269 8.51621 4.32253C2.80274 6.37835 3.93465 13.8636 4.74316 16.9737C4.95877 17.7644 4.47366 18.6078 3.66515 18.8714C2.74884 19.1876 1.77862 18.6605 1.56302 17.7117C0.215504 12.3876 0.107702 3.90083 7.4921 1.3706C10.1332 0.474471 12.5049 0.632611 14.5531 1.84501C17.5715 3.68998 18.9729 7.43261 19.6198 9.85742C21.668 8.96129 24.8481 7.95974 27.5971 8.90858C28.8907 9.33029 30.5616 10.4373 31.4779 13.0202C33.58 19.2404 27.8127 24.3008 24.9559 26.3566C24.0935 26.9892 23.0155 26.7783 22.5304 25.9349Z" fill="#FF3E49"/>
<path d="M23.878 27.5163C23.7163 27.5163 23.5546 27.5163 23.3929 27.4636C22.6922 27.3055 22.1532 26.9365 21.7758 26.3566C21.129 25.3024 21.3985 23.9318 22.4227 23.1938C24.3631 21.7706 28.7829 18.0807 27.4893 14.338C27.112 13.1783 26.5191 12.8621 26.1418 12.7039C24.3092 12.0714 21.0212 13.5473 19.6737 14.338L18.6496 14.9706C18.1645 15.2869 17.5716 15.2869 17.0326 15.076C16.4936 14.8124 16.1702 14.338 16.1163 13.8109L15.9546 12.5985C15.7929 11.1752 14.7149 6.69461 12.3432 5.27135C11.373 4.69151 10.2411 4.63879 8.78577 5.16593C3.71911 6.90546 4.79712 13.9163 5.49783 16.8155C5.76733 18.0279 5.12053 19.2403 3.88081 19.6621C3.234 19.8729 2.53329 19.8202 1.88648 19.5039C1.29358 19.1876 0.86237 18.6078 0.700667 17.9752C-0.970255 11.2279 -0.161744 3.16282 7.16875 0.632592C10.0255 -0.368958 12.6666 -0.158106 14.9305 1.21244C17.7872 2.95197 19.2964 6.11476 20.1049 8.80314C22.3149 7.95972 25.2255 7.27445 27.8127 8.17058C29.268 8.69771 31.1546 9.91011 32.1787 12.8093C34.4964 19.6093 28.19 25.0388 25.3872 27.0419C24.956 27.3582 24.417 27.5163 23.878 27.5163ZM25.1177 10.9117C25.6567 10.9117 26.2496 10.9644 26.7347 11.1752C27.8666 11.5442 28.6212 12.4403 29.1063 13.8109C30.7234 18.6078 25.7106 22.8776 23.4468 24.5117C23.1234 24.7752 23.0156 25.1969 23.2312 25.5659C23.339 25.7768 23.5546 25.8822 23.7702 25.9349C23.9858 25.9876 24.2014 25.9349 24.417 25.7768C26.9503 23.9845 32.6099 19.1349 30.6156 13.3365C29.8071 11.0171 28.3517 10.121 27.2737 9.69926C24.8482 8.85585 21.9375 9.75197 19.9432 10.6481L19.0269 11.0698L18.7574 10.121C18.2184 8.06515 16.8709 4.32251 14.068 2.58298C12.2354 1.476 10.1333 1.31786 7.76166 2.16127C-0.323446 4.95507 1.83258 15.4977 2.37159 17.5535C2.42549 17.7644 2.58719 17.9752 2.74889 18.0807C2.9645 18.1861 3.1801 18.1861 3.3957 18.1334C3.77301 18.0279 4.04251 17.6062 3.93471 17.1845C3.1262 13.8109 1.94038 5.79848 8.24677 3.63724C10.1872 2.95197 11.8042 3.0574 13.2056 3.90081C16.7631 6.06205 17.5716 12.3349 17.6255 12.3876L17.7872 13.6L18.8652 12.9675C18.8652 12.9148 22.2071 10.9117 25.1177 10.9117Z" fill="#FF3E49"/>
<path d="M11.4808 33.6313C10.4028 33.6313 9.48645 32.7352 9.48645 31.6809V22.0871C9.48645 21.0328 10.4028 20.1367 11.4808 20.1367C12.5588 20.1367 13.4751 21.0328 13.4751 22.0871V31.6282C13.4751 32.7352 12.6127 33.6313 11.4808 33.6313Z" fill="#FF3E49"/>
<path d="M11.4808 34.0001C10.1333 34.0001 9.0553 32.9459 9.0553 31.628V22.0869C9.0553 20.7691 10.1333 19.7148 11.4808 19.7148C12.8283 19.7148 13.9064 20.7691 13.9064 22.0869V31.628C13.9064 32.9459 12.8283 34.0001 11.4808 34.0001ZM11.4808 20.5583C10.6184 20.5583 9.91771 21.2435 9.91771 22.0869V31.628C9.91771 32.4714 10.6184 33.1567 11.4808 33.1567C12.3432 33.1567 13.044 32.4714 13.044 31.628V22.0869C13.0979 21.2435 12.3971 20.5583 11.4808 20.5583Z" fill="#FF3E49"/>
<path d="M16.3857 28.8344H6.6297C5.55169 28.8344 4.63538 27.9382 4.63538 26.884C4.63538 25.8297 5.55169 24.9336 6.6297 24.9336H16.3857C17.4637 24.9336 18.3801 25.8297 18.3801 26.884C18.3801 27.991 17.4637 28.8344 16.3857 28.8344Z" fill="#FF3E49"/>
<path d="M16.3858 29.2559H6.62976C5.28224 29.2559 4.20422 28.2016 4.20422 26.8838C4.20422 25.566 5.28224 24.5117 6.62976 24.5117H16.3858C17.7333 24.5117 18.8113 25.566 18.8113 26.8838C18.8113 28.2016 17.7333 29.2559 16.3858 29.2559ZM6.62976 25.3551C5.76734 25.3551 5.06663 26.0404 5.06663 26.8838C5.06663 27.7272 5.76734 28.4125 6.62976 28.4125H16.3858C17.2482 28.4125 17.9489 27.7272 17.9489 26.8838C17.9489 26.0404 17.2482 25.3551 16.3858 25.3551H6.62976Z" fill="#FF3E49"/>
</g>
<defs>
<clipPath id="clip0_113_24982">
<rect width="152" height="34" fill="white"/>
</clipPath>
</defs>
</svg>
