<svg width="238" height="53" viewBox="0 0 238 53" fill="none" xmlns="http://www.w3.org/2000/svg">
<g clip-path="url(#clip0_113_25008)">
<path d="M72.666 14.7085C73.0036 14.7085 73.3412 14.7907 73.7632 14.955C74.1852 15.1193 74.4383 15.3659 74.6071 15.6124L83.3 28.7597L81.5277 28.6775L90.4738 15.6945C90.8958 15.0372 91.4866 14.7907 92.2461 14.7907C92.8369 14.7907 93.3433 14.955 93.7653 15.3659C94.1873 15.7767 94.4405 16.2697 94.4405 16.9271V37.1411C94.4405 37.7162 94.2717 38.2914 93.8497 38.6201C93.4277 39.031 92.9213 39.1953 92.2461 39.1953C91.571 39.1953 91.0646 39.031 90.6426 38.6201C90.2206 38.2093 90.0518 37.7162 90.0518 37.1411V20.7069L91.4866 21.0356L84.144 31.8821C83.8908 32.1287 83.6376 32.3752 83.3 32.5395C82.9625 32.7038 82.6249 32.786 82.2873 32.786C81.9497 32.786 81.6965 32.7038 81.3589 32.5395C81.0213 32.3752 80.7681 32.1287 80.5149 31.8821L73.6788 21.3643L74.6071 19.4744V37.1411C74.6071 37.7162 74.4383 38.2914 74.0164 38.6201C73.5944 39.031 73.1724 39.1953 72.4972 39.1953C71.9064 39.1953 71.4 39.031 71.0625 38.6201C70.6405 38.2093 70.4717 37.7162 70.4717 37.1411V16.8449C70.4717 16.2697 70.7249 15.7767 71.1469 15.3659C71.4844 14.955 72.0752 14.7085 72.666 14.7085Z" fill="white"/>
<path d="M108.282 39.5239C106.256 39.5239 104.484 39.1131 102.965 38.2914C101.445 37.4697 100.348 36.3193 99.5043 34.9224C98.6603 33.5255 98.3228 31.8821 98.3228 30.0743C98.3228 28.0201 98.7447 26.2123 99.6731 24.7332C100.517 23.2542 101.699 22.1038 103.133 21.3643C104.568 20.5425 106.003 20.2139 107.606 20.2139C108.788 20.2139 109.97 20.4604 111.067 20.9534C112.164 21.4464 113.092 22.1038 113.936 22.9255C114.78 23.7472 115.455 24.7332 115.962 25.8836C116.468 27.034 116.721 28.1844 116.721 29.417C116.721 29.9922 116.468 30.403 116.046 30.8139C115.624 31.2247 115.118 31.3069 114.527 31.3069H100.855L99.7575 27.8557H112.923L112.164 28.5131V27.6092C112.079 26.9518 111.911 26.2945 111.404 25.8015C110.982 25.2263 110.392 24.8154 109.716 24.4867C109.041 24.1581 108.366 23.9937 107.606 23.9937C106.847 23.9937 106.256 24.0759 105.581 24.2402C104.99 24.4046 104.399 24.7332 103.977 25.1441C103.555 25.555 103.133 26.2123 102.88 26.9519C102.627 27.6914 102.458 28.6774 102.458 29.7457C102.458 30.9782 102.711 32.0464 103.302 32.9503C103.893 33.8542 104.568 34.5115 105.412 34.9224C106.256 35.4154 107.184 35.5798 108.113 35.5798C108.957 35.5798 109.716 35.4976 110.223 35.3332C110.729 35.1689 111.151 35.0046 111.489 34.8402C111.826 34.6759 112.079 34.5115 112.333 34.3472C112.755 34.1007 113.177 34.0185 113.514 34.0185C114.021 34.0185 114.443 34.1829 114.865 34.5115C115.202 34.8402 115.371 35.2511 115.371 35.7441C115.371 36.4015 115.033 36.9767 114.358 37.4697C113.767 37.9627 112.839 38.4557 111.742 38.7844C110.645 39.1131 109.463 39.5239 108.282 39.5239Z" fill="white"/>
<path d="M135.711 13.3936C136.301 13.3936 136.808 13.5579 137.23 13.9687C137.652 14.3796 137.821 14.8726 137.821 15.53V37.1408C137.821 37.716 137.652 38.2912 137.23 38.6199C136.808 39.0308 136.301 39.1951 135.711 39.1951C135.12 39.1951 134.614 39.0308 134.192 38.6199C133.77 38.2091 133.601 37.716 133.601 37.1408V35.3331L134.36 35.6618C134.36 35.9905 134.192 36.3191 133.854 36.73C133.516 37.1408 133.094 37.5517 132.504 38.0447C131.913 38.4556 131.238 38.7843 130.478 39.1129C129.719 39.4416 128.875 39.5238 127.946 39.5238C126.258 39.5238 124.823 39.1129 123.473 38.2912C122.123 37.4695 121.11 36.3191 120.266 34.8401C119.506 33.361 119.084 31.7176 119.084 29.8277C119.084 27.9377 119.506 26.2122 120.266 24.8153C121.026 23.3362 122.123 22.1858 123.389 21.3641C124.739 20.5424 126.174 20.1315 127.777 20.1315C128.79 20.1315 129.719 20.2959 130.647 20.6246C131.491 20.9532 132.25 21.2819 132.926 21.775C133.601 22.268 134.023 22.6788 134.36 23.1719C134.698 23.6649 134.867 24.0757 134.867 24.4044L133.601 24.8974V15.53C133.601 14.9548 133.77 14.3796 134.192 14.0509C134.614 13.5579 135.12 13.3936 135.711 13.3936ZM128.537 35.7439C129.55 35.7439 130.478 35.4974 131.322 35.0044C132.082 34.5114 132.757 33.7718 133.179 32.9501C133.601 32.0463 133.854 31.0602 133.854 29.992C133.854 28.8416 133.601 27.8556 133.179 26.9517C132.757 26.0478 132.082 25.3905 131.322 24.8153C130.562 24.3222 129.634 24.0757 128.537 24.0757C127.524 24.0757 126.596 24.3222 125.836 24.8153C125.077 25.3083 124.401 26.0478 123.979 26.9517C123.558 27.8556 123.304 28.8416 123.304 29.992C123.304 31.0602 123.558 32.0463 123.979 32.9501C124.401 33.854 125.077 34.5114 125.836 35.0044C126.596 35.4974 127.44 35.7439 128.537 35.7439Z" fill="white"/>
<path d="M144.404 18.2415C143.56 18.2415 143.053 18.0771 142.716 17.8306C142.378 17.5841 142.209 17.0911 142.209 16.4337V15.7764C142.209 15.119 142.378 14.626 142.8 14.3795C143.138 14.133 143.728 14.0508 144.488 14.0508C145.332 14.0508 145.923 14.2151 146.26 14.4616C146.598 14.7081 146.767 15.2012 146.767 15.8585V16.5159C146.767 17.1733 146.598 17.6663 146.26 17.9128C145.838 18.1593 145.248 18.2415 144.404 18.2415ZM146.598 37.0585C146.598 37.6337 146.429 38.2089 146.007 38.5376C145.585 38.9485 145.079 39.1128 144.488 39.1128C143.897 39.1128 143.391 38.9485 142.969 38.5376C142.547 38.1268 142.378 37.6337 142.378 37.0585V22.6787C142.378 22.1035 142.547 21.5283 142.969 21.1996C143.391 20.7888 143.897 20.6244 144.488 20.6244C145.079 20.6244 145.585 20.7888 146.007 21.1996C146.429 21.6105 146.598 22.1035 146.598 22.6787V37.0585Z" fill="white"/>
<path d="M149.889 36.3192C149.636 35.9905 149.552 35.5796 149.552 35.0866C149.552 34.5936 149.889 34.1005 150.48 33.7719C150.902 33.5254 151.24 33.4432 151.662 33.4432C152.084 33.4432 152.506 33.6897 152.928 34.1005C153.603 34.7579 154.363 35.3331 155.122 35.6618C155.882 36.0726 156.81 36.237 157.992 36.237C158.329 36.237 158.751 36.1548 159.173 36.0726C159.595 35.9905 160.017 35.8261 160.27 35.4974C160.608 35.1688 160.777 34.7579 160.777 34.1827C160.777 33.6897 160.608 33.2788 160.27 32.9502C159.933 32.6215 159.426 32.375 158.836 32.2106C158.245 32.0463 157.57 31.7998 156.894 31.6354C156.135 31.3889 155.375 31.2246 154.616 30.9781C153.856 30.7316 153.097 30.4029 152.506 29.992C151.831 29.5812 151.324 29.006 150.902 28.3486C150.48 27.6912 150.311 26.7874 150.311 25.8013C150.311 24.6509 150.649 23.6649 151.324 22.8432C151.999 22.0215 152.843 21.3641 153.941 20.9533C155.038 20.5424 156.135 20.2959 157.316 20.2959C158.076 20.2959 158.836 20.3781 159.68 20.5424C160.524 20.7068 161.283 21.0354 162.043 21.3641C162.802 21.775 163.393 22.268 163.899 22.8432C164.153 23.1719 164.321 23.5827 164.406 24.0757C164.49 24.5688 164.237 24.9796 163.731 25.3905C163.393 25.637 162.971 25.8013 162.465 25.7192C161.958 25.7192 161.621 25.5548 161.283 25.2261C160.861 24.7331 160.355 24.3223 159.68 23.9936C159.004 23.6649 158.245 23.5005 157.316 23.5005C156.979 23.5005 156.557 23.5005 156.135 23.5827C155.713 23.6649 155.375 23.8292 155.038 24.0757C154.7 24.3223 154.531 24.7331 154.531 25.3905C154.531 25.9657 154.7 26.3765 155.038 26.7052C155.375 27.0339 155.882 27.2804 156.472 27.4447C157.063 27.6091 157.738 27.8556 158.414 28.0199C159.089 28.1843 159.848 28.4308 160.608 28.6773C161.367 28.9238 162.043 29.2525 162.633 29.6633C163.224 30.0742 163.731 30.6494 164.153 31.3067C164.575 31.9641 164.743 32.7858 164.743 33.854C164.743 35.0044 164.406 36.0726 163.646 36.8944C162.971 37.7161 162.043 38.3734 160.945 38.7843C159.848 39.1951 158.751 39.4416 157.654 39.4416C156.219 39.4416 154.869 39.1951 153.434 38.7021C151.999 38.2091 150.818 37.5517 149.889 36.3192Z" fill="white"/>
<path d="M170.482 39.1953C169.892 39.1953 169.385 39.0309 168.963 38.6201C168.541 38.2092 168.372 37.7162 168.372 37.141V22.679C168.372 22.1038 168.541 21.5286 168.963 21.1999C169.385 20.7891 169.892 20.6247 170.482 20.6247C171.073 20.6247 171.58 20.7891 172.002 21.1999C172.424 21.6108 172.592 22.1038 172.592 22.679V25.9658L172.339 23.665C172.592 23.0898 172.93 22.5968 173.352 22.186C173.774 21.7751 174.28 21.3643 174.787 21.1177C175.293 20.7891 175.884 20.6247 176.475 20.4604C177.065 20.296 177.656 20.2139 178.247 20.2139C178.922 20.2139 179.597 20.3782 180.019 20.7891C180.526 21.1999 180.779 21.6108 180.779 22.186C180.779 22.9255 180.61 23.5007 180.188 23.8294C179.766 24.1581 179.344 24.3224 178.838 24.3224C178.416 24.3224 177.994 24.2402 177.572 24.0759C177.15 23.9115 176.897 23.8294 176.39 23.8294C175.968 23.8294 175.546 23.9115 175.04 24.1581C174.618 24.3224 174.196 24.6511 173.858 25.0619C173.521 25.4728 173.183 25.9658 172.93 26.6232C172.677 27.2805 172.592 27.9379 172.592 28.8418V37.141C172.592 37.7162 172.424 38.2914 172.002 38.6201C171.58 39.0309 171.073 39.1953 170.482 39.1953Z" fill="white"/>
<path d="M198.165 20.5425C198.755 20.5425 199.262 20.7068 199.684 21.1177C200.106 21.5285 200.275 22.0216 200.275 22.5967V31.4712C200.275 33.9363 199.599 35.9084 198.165 37.3053C196.73 38.7022 194.704 39.4417 192.088 39.4417C189.472 39.4417 187.446 38.7022 186.011 37.3053C184.577 35.8262 183.901 33.9363 183.901 31.4712V22.6789C183.901 22.1037 184.07 21.5285 184.492 21.1998C184.914 20.789 185.421 20.6247 186.011 20.6247C186.602 20.6247 187.109 20.789 187.531 21.1998C187.953 21.6107 188.121 22.1037 188.121 22.6789V31.5533C188.121 32.9502 188.459 34.0185 189.05 34.6758C189.725 35.3332 190.653 35.744 191.919 35.744C193.27 35.744 194.198 35.4153 194.873 34.6758C195.548 34.0185 195.801 32.9502 195.801 31.5533V22.6789C195.801 22.1037 195.97 21.5285 196.392 21.1998C196.983 20.7068 197.489 20.5425 198.165 20.5425Z" fill="white"/>
<path d="M214.875 20.2139C216.563 20.2139 218.082 20.6247 219.348 21.4464C220.699 22.2681 221.711 23.4185 222.471 24.8154C223.231 26.2945 223.653 27.9379 223.653 29.8278C223.653 31.7177 223.231 33.4433 222.471 34.8402C221.711 36.3193 220.614 37.4697 219.348 38.2914C218.082 39.1131 216.563 39.5239 214.96 39.5239C214.031 39.5239 213.103 39.3596 212.259 39.0309C211.415 38.7022 210.655 38.3736 210.065 37.8805C209.389 37.3875 208.967 36.9767 208.63 36.4836C208.292 35.9906 208.123 35.5798 208.123 35.2511L209.221 34.7581V43.9612C209.221 44.5363 209.052 45.1115 208.63 45.4402C208.208 45.8511 207.701 46.0154 207.111 46.0154C206.52 46.0154 206.014 45.8511 205.592 45.4402C205.17 45.0294 205.001 44.5363 205.001 43.879V22.679C205.001 22.1038 205.17 21.5286 205.592 21.1999C206.014 20.7891 206.52 20.6247 207.111 20.6247C207.701 20.6247 208.208 20.7891 208.63 21.1999C209.052 21.6108 209.221 22.1038 209.221 22.679V24.4046L208.63 24.0759C208.63 23.7472 208.799 23.4185 209.136 23.0077C209.474 22.5968 209.896 22.186 210.487 21.6929C211.077 21.2821 211.753 20.8712 212.512 20.6247C213.272 20.296 214.031 20.2139 214.875 20.2139ZM214.369 23.9937C213.356 23.9937 212.428 24.2402 211.584 24.7332C210.824 25.2263 210.149 25.9658 209.727 26.7875C209.305 27.6914 209.052 28.6774 209.052 29.7457C209.052 30.8139 209.305 31.7999 209.727 32.7038C210.149 33.6077 210.824 34.265 211.584 34.8402C212.343 35.3332 213.272 35.5798 214.369 35.5798C215.382 35.5798 216.31 35.3332 217.154 34.8402C217.913 34.3472 218.504 33.6077 219.011 32.7038C219.517 31.7999 219.686 30.8139 219.686 29.7457C219.686 28.5953 219.433 27.6092 219.011 26.7875C218.589 25.9658 217.998 25.2263 217.154 24.7332C216.31 24.2402 215.382 23.9937 214.369 23.9937Z" fill="white"/>
<path d="M227.535 20.8712H236.059C236.65 20.8712 237.072 21.0355 237.494 21.4463C237.916 21.8572 238.084 22.2681 238.084 22.8432C238.084 23.4184 237.916 23.8293 237.494 24.158C237.072 24.4867 236.65 24.7332 236.059 24.7332H227.535C226.944 24.7332 226.522 24.5688 226.1 24.158C225.678 23.7471 225.509 23.3363 225.509 22.7611C225.509 22.1859 225.678 21.775 226.1 21.4463C226.438 21.0355 226.944 20.8712 227.535 20.8712ZM231.333 16.5161C231.923 16.5161 232.43 16.6805 232.852 17.0913C233.274 17.5022 233.443 17.9952 233.443 18.5704V34.1006C233.443 34.4293 233.527 34.6758 233.611 34.9223C233.696 35.1688 233.949 35.251 234.118 35.4153C234.287 35.5797 234.624 35.5797 234.877 35.5797C235.131 35.5797 235.468 35.4975 235.637 35.4153C235.89 35.3332 236.143 35.251 236.481 35.251C236.818 35.251 237.156 35.4153 237.409 35.744C237.662 36.0727 237.831 36.4836 237.831 36.9766C237.831 37.6339 237.494 38.127 236.734 38.62C235.975 39.0308 235.215 39.2774 234.371 39.2774C233.865 39.2774 233.274 39.2774 232.683 39.1952C232.092 39.113 231.501 38.9487 230.995 38.62C230.489 38.2913 229.982 37.7983 229.645 37.1409C229.307 36.4836 229.138 35.5797 229.138 34.4293V18.6525C229.138 18.0774 229.307 17.5022 229.729 17.1735C230.151 16.8448 230.742 16.5161 231.333 16.5161Z" fill="white"/>
<path d="M35.278 40.4276C34.6029 39.3594 34.9405 37.8803 35.9532 37.1408C39.4979 34.5935 46.5873 28.5129 44.3085 21.8571C43.7178 20.1315 42.7894 18.9811 41.3546 18.5702C37.81 17.3377 32.071 20.0493 30.1298 21.1997L28.5263 22.1857C27.6823 22.6788 26.6695 22.1857 26.5007 21.2819L26.2476 19.3919C25.91 16.8447 24.1376 9.53148 20.0022 7.06636C18.1454 5.99814 15.9511 5.8338 13.3348 6.73768C4.38869 9.94233 6.16103 21.6105 7.42699 26.4586C7.76458 27.6912 7.005 29.0059 5.73904 29.4167C4.30429 29.9098 2.78514 29.0881 2.44755 27.609C0.337624 19.3098 0.16883 6.08032 11.7312 2.13613C15.8667 0.739229 19.5802 0.985741 22.7873 2.87566C27.5135 5.75163 29.7078 11.5857 30.7206 15.3656C33.9277 13.9687 38.9071 12.4074 43.2114 13.8865C45.2369 14.5439 47.8532 16.2695 49.288 20.2958C52.5795 29.9919 43.549 37.8803 39.0759 41.085C37.7256 42.071 36.0376 41.7423 35.278 40.4276Z" fill="white"/>
<path d="M37.388 42.8928C37.1348 42.8928 36.8816 42.8928 36.6284 42.8107C35.5312 42.5642 34.6873 41.989 34.0965 41.0851C33.0837 39.4417 33.5057 37.3052 35.1093 36.1549C38.1476 33.9362 45.0681 28.1843 43.0426 22.3502C42.4518 20.5424 41.5234 20.0494 40.9327 19.8029C38.0632 18.8169 32.9149 21.1176 30.805 22.3502L29.2015 23.3362C28.4419 23.8293 27.5135 23.8293 26.6695 23.5006C25.8256 23.0897 25.3192 22.3502 25.2348 21.5285L24.9816 19.6386C24.7284 17.42 23.0405 10.4355 19.327 8.21686C17.8078 7.31299 16.0355 7.23082 13.7568 8.05252C5.82344 10.7641 7.51138 21.6928 8.60855 26.2122C9.03053 28.1021 8.01777 29.9921 6.07663 30.6494C5.06387 30.9781 3.9667 30.8959 2.95394 30.4029C2.02557 29.9099 1.35039 29.006 1.0972 28.02C-1.51911 17.5021 -0.253154 4.93004 11.2249 0.985855C15.6979 -0.575385 19.8334 -0.246703 23.3781 1.88973C27.8511 4.60136 30.2142 9.53159 31.4802 13.7223C34.9405 12.4076 39.4979 11.3393 43.549 12.7362C45.8277 13.5579 48.7816 15.4479 50.3851 19.9673C54.0142 30.5673 44.1398 39.0308 39.7511 42.1533C39.0759 42.6463 38.2319 42.8928 37.388 42.8928ZM39.3291 17.0091C40.1731 17.0091 41.1015 17.0913 41.861 17.42C43.6334 17.9952 44.8149 19.3921 45.5745 21.5285C48.1064 29.006 40.2575 35.6618 36.7128 38.2091C36.2064 38.62 36.0376 39.2773 36.3752 39.8525C36.544 40.1812 36.8816 40.3455 37.2192 40.4277C37.5568 40.5099 37.8944 40.4277 38.2319 40.1812C42.1986 37.3874 51.0603 29.8277 47.9376 20.789C46.6717 17.1735 44.3929 15.7766 42.705 15.1192C38.9071 13.8045 34.3497 15.2014 31.227 16.5983L29.7922 17.2556L29.3702 15.7766C28.5263 12.5719 26.4163 6.73779 22.0277 4.02617C19.1582 2.30058 15.8667 2.05407 12.1532 3.3688C-0.506346 7.72384 2.86954 24.1579 3.71351 27.3626C3.79791 27.6913 4.0511 28.02 4.30429 28.1843C4.64188 28.3486 4.97947 28.3486 5.31706 28.2665C5.90784 28.1021 6.32982 27.4448 6.16103 26.7874C4.89507 21.5285 3.03834 9.03857 12.9128 5.66958C15.9511 4.60136 18.483 4.7657 20.6773 6.08043C26.2476 9.44942 27.5135 19.2277 27.5979 19.3099L27.8511 21.1998L29.539 20.2138C29.539 20.1316 34.7717 17.0091 39.3291 17.0091Z" fill="white"/>
<path d="M17.9766 52.4243C16.2886 52.4243 14.8539 51.0274 14.8539 49.384V34.429C14.8539 32.7856 16.2886 31.3887 17.9766 31.3887C19.6645 31.3887 21.0993 32.7856 21.0993 34.429V49.3018C21.0993 51.0274 19.7489 52.4243 17.9766 52.4243Z" fill="white"/>
<path d="M17.9766 52.9997C15.8667 52.9997 14.1787 51.3562 14.1787 49.302V34.4291C14.1787 32.3749 15.8667 30.7314 17.9766 30.7314C20.0865 30.7314 21.7745 32.3749 21.7745 34.4291V49.302C21.7745 51.3562 20.0865 52.9997 17.9766 52.9997ZM17.9766 32.0462C16.6262 32.0462 15.5291 33.1144 15.5291 34.4291V49.302C15.5291 50.6167 16.6262 51.6849 17.9766 51.6849C19.3269 51.6849 20.4241 50.6167 20.4241 49.302V34.4291C20.5085 33.1144 19.4113 32.0462 17.9766 32.0462Z" fill="white"/>
<path d="M25.6568 44.9468H10.3809C8.69293 44.9468 7.25818 43.5499 7.25818 41.9065C7.25818 40.2631 8.69293 38.8662 10.3809 38.8662H25.6568C27.3447 38.8662 28.7795 40.2631 28.7795 41.9065C28.7795 43.6321 27.3447 44.9468 25.6568 44.9468Z" fill="white"/>
<path d="M25.6568 45.6043H10.3809C8.27095 45.6043 6.58301 43.9609 6.58301 41.9067C6.58301 39.8524 8.27095 38.209 10.3809 38.209H25.6568C27.7667 38.209 29.4546 39.8524 29.4546 41.9067C29.4546 43.9609 27.7667 45.6043 25.6568 45.6043ZM10.3809 39.5237C9.03053 39.5237 7.93336 40.5919 7.93336 41.9067C7.93336 43.2214 9.03053 44.2896 10.3809 44.2896H25.6568C27.0071 44.2896 28.1043 43.2214 28.1043 41.9067C28.1043 40.5919 27.0071 39.5237 25.6568 39.5237H10.3809Z" fill="white"/>
</g>
<defs>
<clipPath id="clip0_113_25008">
<rect width="238" height="53" fill="white"/>
</clipPath>
</defs>
</svg>
