<svg width="48" height="48" viewBox="0 0 48 48" fill="none" xmlns="http://www.w3.org/2000/svg">
<circle cx="24" cy="24" r="24" fill="#FF3E49"/>
<path d="M24 26.9644C25.02 26.9644 26.1525 26.756 27.3975 26.3393C28.6425 25.9226 30.51 25.1895 33 24.14V23.7927C33 23.0056 32.6925 22.3728 32.0775 21.8944C31.4625 21.4159 30.7875 21.2847 30.0525 21.5008C29.7975 21.578 29.5389 21.6706 29.2767 21.7786C29.0139 21.8867 28.665 22.0256 28.23 22.1953C27.315 22.5966 26.5425 22.8744 25.9125 23.0288C25.2825 23.1831 24.645 23.2603 24 23.2603C23.325 23.2603 22.6725 23.1794 22.0425 23.0176C21.4125 22.8553 20.6175 22.5735 19.6575 22.1722C19.2975 22.0178 18.9864 21.8904 18.7242 21.7897C18.4614 21.6897 18.21 21.6011 17.97 21.524C17.235 21.277 16.5564 21.3928 15.9342 21.8712C15.3114 22.3497 15 22.9902 15 23.7927V24.0937C16.965 25.0197 18.69 25.7297 20.175 26.2235C21.66 26.7174 22.935 26.9644 24 26.9644ZM24 32.5205C26.07 32.5205 27.8886 31.9381 29.4558 30.7731C31.0236 29.6076 32.085 28.1142 32.64 26.293C30.675 27.1573 29.025 27.7938 27.69 28.2025C26.355 28.6118 25.125 28.8164 24 28.8164C22.86 28.8164 21.5589 28.5966 20.0967 28.1571C18.6339 27.7169 17.04 27.0878 15.315 26.2699C15.825 28.1682 16.8525 29.6847 18.3975 30.8194C19.9425 31.9535 21.81 32.5205 24 32.5205ZM24 21.4082C23.01 21.4082 22.1625 21.0455 21.4575 20.3201C20.7525 19.5947 20.4 18.7227 20.4 17.7041C20.4 16.6855 20.7525 15.8135 21.4575 15.0881C22.1625 14.3627 23.01 14 24 14C24.99 14 25.8375 14.3627 26.5425 15.0881C27.2475 15.8135 27.6 16.6855 27.6 17.7041C27.6 18.7227 27.2475 19.5947 26.5425 20.3201C25.8375 21.0455 24.99 21.4082 24 21.4082Z" fill="#FFF3F5"/>
</svg>
