<svg width="48" height="49" viewBox="0 0 48 49" fill="none" xmlns="http://www.w3.org/2000/svg">
<circle cx="24" cy="24.2803" r="24" fill="#FF3E49"/>
<path d="M14.75 30C14.2687 30 13.8569 29.8288 13.5145 29.4864C13.1715 29.1434 13 28.7312 13 28.25V17.75C13 17.2687 13.1715 16.8569 13.5145 16.5145C13.8569 16.1715 14.2687 16 14.75 16H20L21.75 17.75H28.75C29.2313 17.75 29.6434 17.9215 29.9864 18.2645C30.3288 18.6069 30.5 19.0187 30.5 19.5H14.75V28.25L16.85 21.25H31.8125L29.5594 28.7531C29.4427 29.1323 29.2277 29.435 28.9145 29.6614C28.6007 29.8871 28.2542 30 27.875 30H14.75Z" fill="white"/>
</svg>
