<svg width="1440" height="168" viewBox="0 0 1440 168" fill="none" xmlns="http://www.w3.org/2000/svg">
<rect x="-75.0352" width="1591" height="164" transform="rotate(0.11815 -75.0352 0)" fill="#F4FFFF"/>
<rect width="3250.01" height="60" transform="translate(-296 47)" fill="#F4FFFF"/>
<path d="M-244.909 68H-250.545C-250.879 66.3788 -251.462 64.9545 -252.295 63.7273C-253.114 62.5 -254.114 61.4697 -255.295 60.6364C-256.462 59.7879 -257.758 59.1515 -259.182 58.7273C-260.606 58.303 -262.091 58.0909 -263.636 58.0909C-266.455 58.0909 -269.008 58.803 -271.295 60.2273C-273.568 61.6515 -275.379 63.75 -276.727 66.5227C-278.061 69.2955 -278.727 72.697 -278.727 76.7273C-278.727 80.7576 -278.061 84.1591 -276.727 86.9318C-275.379 89.7045 -273.568 91.803 -271.295 93.2273C-269.008 94.6515 -266.455 95.3636 -263.636 95.3636C-262.091 95.3636 -260.606 95.1515 -259.182 94.7273C-257.758 94.303 -256.462 93.6742 -255.295 92.8409C-254.114 91.9924 -253.114 90.9545 -252.295 89.7273C-251.462 88.4848 -250.879 87.0606 -250.545 85.4545H-244.909C-245.333 87.8333 -246.106 89.9621 -247.227 91.8409C-248.348 93.7197 -249.742 95.3182 -251.409 96.6364C-253.076 97.9394 -254.947 98.9318 -257.023 99.6136C-259.083 100.295 -261.288 100.636 -263.636 100.636C-267.606 100.636 -271.136 99.6667 -274.227 97.7273C-277.318 95.7879 -279.75 93.0303 -281.523 89.4545C-283.295 85.8788 -284.182 81.6364 -284.182 76.7273C-284.182 71.8182 -283.295 67.5758 -281.523 64C-279.75 60.4242 -277.318 57.6667 -274.227 55.7273C-271.136 53.7879 -267.606 52.8182 -263.636 52.8182C-261.288 52.8182 -259.083 53.1591 -257.023 53.8409C-254.947 54.5227 -253.076 55.5227 -251.409 56.8409C-249.742 58.1439 -248.348 59.7348 -247.227 61.6136C-246.106 63.4773 -245.333 65.6061 -244.909 68ZM-226.256 100.818C-228.468 100.818 -230.475 100.402 -232.278 99.5682C-234.081 98.7197 -235.513 97.5 -236.574 95.9091C-237.634 94.303 -238.165 92.3636 -238.165 90.0909C-238.165 88.0909 -237.771 86.4697 -236.983 85.2273C-236.195 83.9697 -235.142 82.9848 -233.824 82.2727C-232.506 81.5606 -231.051 81.0303 -229.46 80.6818C-227.854 80.3182 -226.241 80.0303 -224.619 79.8182C-222.498 79.5455 -220.778 79.3409 -219.46 79.2045C-218.127 79.053 -217.157 78.803 -216.551 78.4545C-215.93 78.1061 -215.619 77.5 -215.619 76.6364V76.4545C-215.619 74.2121 -216.233 72.4697 -217.46 71.2273C-218.672 69.9848 -220.513 69.3636 -222.983 69.3636C-225.544 69.3636 -227.551 69.9242 -229.006 71.0455C-230.46 72.1667 -231.483 73.3636 -232.074 74.6364L-237.165 72.8182C-236.256 70.697 -235.044 69.0455 -233.528 67.8636C-231.998 66.6667 -230.331 65.8333 -228.528 65.3636C-226.71 64.8788 -224.922 64.6364 -223.165 64.6364C-222.044 64.6364 -220.756 64.7727 -219.301 65.0455C-217.831 65.303 -216.415 65.8409 -215.051 66.6591C-213.672 67.4773 -212.528 68.7121 -211.619 70.3636C-210.71 72.0152 -210.256 74.2273 -210.256 77V100H-215.619V95.2727H-215.892C-216.256 96.0303 -216.862 96.8409 -217.71 97.7045C-218.559 98.5682 -219.687 99.303 -221.097 99.9091C-222.506 100.515 -224.225 100.818 -226.256 100.818ZM-225.438 96C-223.316 96 -221.528 95.5833 -220.074 94.75C-218.604 93.9167 -217.498 92.8409 -216.756 91.5227C-215.998 90.2045 -215.619 88.8182 -215.619 87.3636V82.4545C-215.847 82.7273 -216.347 82.9773 -217.119 83.2045C-217.877 83.4167 -218.756 83.6061 -219.756 83.7727C-220.741 83.9242 -221.703 84.0606 -222.642 84.1818C-223.566 84.2879 -224.316 84.3788 -224.892 84.4545C-226.286 84.6364 -227.589 84.9318 -228.801 85.3409C-229.998 85.7348 -230.968 86.3333 -231.71 87.1364C-232.437 87.9242 -232.801 89 -232.801 90.3636C-232.801 92.2273 -232.112 93.6364 -230.733 94.5909C-229.339 95.5303 -227.574 96 -225.438 96ZM-200.466 100V65.0909H-195.284V70.3636H-194.92C-194.284 68.6364 -193.133 67.2348 -191.466 66.1591C-189.799 65.0833 -187.92 64.5455 -185.83 64.5455C-185.436 64.5455 -184.943 64.553 -184.352 64.5682C-183.761 64.5833 -183.314 64.6061 -183.011 64.6364V70.0909C-183.193 70.0455 -183.61 69.9773 -184.261 69.8864C-184.898 69.7803 -185.572 69.7273 -186.284 69.7273C-187.981 69.7273 -189.496 70.0833 -190.83 70.7955C-192.148 71.4924 -193.193 72.4621 -193.966 73.7045C-194.723 74.9318 -195.102 76.3333 -195.102 77.9091V100H-200.466ZM-163.08 100.727C-166.443 100.727 -169.345 99.9848 -171.784 98.5C-174.208 97 -176.08 94.9091 -177.398 92.2273C-178.701 89.5303 -179.352 86.3939 -179.352 82.8182C-179.352 79.2424 -178.701 76.0909 -177.398 73.3636C-176.08 70.6212 -174.246 68.4848 -171.898 66.9545C-169.534 65.4091 -166.777 64.6364 -163.625 64.6364C-161.807 64.6364 -160.011 64.9394 -158.239 65.5455C-156.466 66.1515 -154.852 67.1364 -153.398 68.5C-151.943 69.8485 -150.784 71.6364 -149.92 73.8636C-149.057 76.0909 -148.625 78.8333 -148.625 82.0909V84.3636H-175.534V79.7273H-154.08C-154.08 77.7576 -154.473 76 -155.261 74.4545C-156.034 72.9091 -157.14 71.6894 -158.58 70.7955C-160.004 69.9015 -161.686 69.4545 -163.625 69.4545C-165.761 69.4545 -167.61 69.9848 -169.17 71.0455C-170.716 72.0909 -171.905 73.4545 -172.739 75.1364C-173.572 76.8182 -173.989 78.6212 -173.989 80.5455V83.6364C-173.989 86.2727 -173.534 88.5076 -172.625 90.3409C-171.701 92.1591 -170.42 93.5455 -168.784 94.5C-167.148 95.4394 -165.246 95.9091 -163.08 95.9091C-161.67 95.9091 -160.398 95.7121 -159.261 95.3182C-158.11 94.9091 -157.117 94.303 -156.284 93.5C-155.451 92.6818 -154.807 91.6667 -154.352 90.4545L-149.17 91.9091C-149.716 93.6667 -150.633 95.2121 -151.92 96.5455C-153.208 97.8636 -154.799 98.8939 -156.693 99.6364C-158.587 100.364 -160.716 100.727 -163.08 100.727ZM-126.375 113.818C-128.966 113.818 -131.193 113.485 -133.057 112.818C-134.92 112.167 -136.473 111.303 -137.716 110.227C-138.943 109.167 -139.92 108.03 -140.648 106.818L-136.375 103.818C-135.89 104.455 -135.277 105.182 -134.534 106C-133.792 106.833 -132.777 107.553 -131.489 108.159C-130.186 108.78 -128.481 109.091 -126.375 109.091C-123.557 109.091 -121.231 108.409 -119.398 107.045C-117.564 105.682 -116.648 103.545 -116.648 100.636V93.5455H-117.102C-117.496 94.1818 -118.057 94.9697 -118.784 95.9091C-119.496 96.8333 -120.527 97.6591 -121.875 98.3864C-123.208 99.0985 -125.011 99.4545 -127.284 99.4545C-130.102 99.4545 -132.633 98.7879 -134.875 97.4545C-137.102 96.1212 -138.867 94.1818 -140.17 91.6364C-141.458 89.0909 -142.102 86 -142.102 82.3636C-142.102 78.7879 -141.473 75.6742 -140.216 73.0227C-138.958 70.3561 -137.208 68.2955 -134.966 66.8409C-132.723 65.3712 -130.133 64.6364 -127.193 64.6364C-124.92 64.6364 -123.117 65.0152 -121.784 65.7727C-120.436 66.5152 -119.405 67.3636 -118.693 68.3182C-117.966 69.2576 -117.405 70.0303 -117.011 70.6364H-116.466V65.0909H-111.284V101C-111.284 104 -111.966 106.439 -113.33 108.318C-114.678 110.212 -116.496 111.598 -118.784 112.477C-121.057 113.371 -123.587 113.818 -126.375 113.818ZM-126.557 94.6364C-124.405 94.6364 -122.587 94.1439 -121.102 93.1591C-119.617 92.1742 -118.489 90.7576 -117.716 88.9091C-116.943 87.0606 -116.557 84.8485 -116.557 82.2727C-116.557 79.7576 -116.936 77.5379 -117.693 75.6136C-118.451 73.6894 -119.572 72.1818 -121.057 71.0909C-122.542 70 -124.375 69.4545 -126.557 69.4545C-128.83 69.4545 -130.723 70.0303 -132.239 71.1818C-133.739 72.3333 -134.867 73.8788 -135.625 75.8182C-136.367 77.7576 -136.739 79.9091 -136.739 82.2727C-136.739 84.697 -136.36 86.8409 -135.602 88.7045C-134.83 90.553 -133.693 92.0076 -132.193 93.0682C-130.678 94.1136 -128.799 94.6364 -126.557 94.6364ZM-101.466 100V65.0909H-96.1023V100H-101.466ZM-98.7386 59.2727C-99.7841 59.2727 -100.686 58.9167 -101.443 58.2045C-102.186 57.4924 -102.557 56.6364 -102.557 55.6364C-102.557 54.6364 -102.186 53.7803 -101.443 53.0682C-100.686 52.3561 -99.7841 52 -98.7386 52C-97.6932 52 -96.7992 52.3561 -96.0568 53.0682C-95.2992 53.7803 -94.9205 54.6364 -94.9205 55.6364C-94.9205 56.6364 -95.2992 57.4924 -96.0568 58.2045C-96.7992 58.9167 -97.6932 59.2727 -98.7386 59.2727ZM-57.733 65.0909L-70.642 100H-76.0966L-89.0057 65.0909H-83.1875L-73.5511 92.9091H-73.1875L-63.5511 65.0909H-57.733ZM-37.267 100.727C-40.6307 100.727 -43.5322 99.9848 -45.9716 98.5C-48.3958 97 -50.267 94.9091 -51.5852 92.2273C-52.8883 89.5303 -53.5398 86.3939 -53.5398 82.8182C-53.5398 79.2424 -52.8883 76.0909 -51.5852 73.3636C-50.267 70.6212 -48.4337 68.4848 -46.0852 66.9545C-43.7216 65.4091 -40.964 64.6364 -37.8125 64.6364C-35.9943 64.6364 -34.1989 64.9394 -32.4261 65.5455C-30.6534 66.1515 -29.0398 67.1364 -27.5852 68.5C-26.1307 69.8485 -24.9716 71.6364 -24.108 73.8636C-23.2443 76.0909 -22.8125 78.8333 -22.8125 82.0909V84.3636H-49.7216V79.7273H-28.267C-28.267 77.7576 -28.661 76 -29.4489 74.4545C-30.2216 72.9091 -31.3277 71.6894 -32.767 70.7955C-34.1913 69.9015 -35.8731 69.4545 -37.8125 69.4545C-39.9489 69.4545 -41.7973 69.9848 -43.358 71.0455C-44.9034 72.0909 -46.0928 73.4545 -46.9261 75.1364C-47.7595 76.8182 -48.1761 78.6212 -48.1761 80.5455V83.6364C-48.1761 86.2727 -47.7216 88.5076 -46.8125 90.3409C-45.8883 92.1591 -44.608 93.5455 -42.9716 94.5C-41.3352 95.4394 -39.4337 95.9091 -37.267 95.9091C-35.858 95.9091 -34.5852 95.7121 -33.4489 95.3182C-32.2973 94.9091 -31.3049 94.303 -30.4716 93.5C-29.6383 92.6818 -28.9943 91.6667 -28.5398 90.4545L-23.358 91.9091C-23.9034 93.6667 -24.8201 95.2121 -26.108 96.5455C-27.3958 97.8636 -28.9867 98.8939 -30.8807 99.6364C-32.7746 100.364 -34.9034 100.727 -37.267 100.727ZM-14.6534 100V65.0909H-9.47159V70.3636H-9.10795C-8.47159 68.6364 -7.32008 67.2348 -5.65341 66.1591C-3.98674 65.0833 -2.10795 64.5455 -0.0170441 64.5455C0.376895 64.5455 0.869319 64.553 1.46023 64.5682C2.05114 64.5833 2.49811 64.6061 2.80114 64.6364V70.0909C2.61932 70.0455 2.20265 69.9773 1.55114 69.8864C0.914774 69.7803 0.240531 69.7273 -0.47159 69.7273C-2.16856 69.7273 -3.68371 70.0833 -5.01705 70.7955C-6.33523 71.4924 -7.38068 72.4621 -8.15341 73.7045C-8.91098 74.9318 -9.28977 76.3333 -9.28977 77.9091V100H-14.6534ZM33.8864 72.9091L29.0682 74.2727C28.7652 73.4697 28.3182 72.6894 27.7273 71.9318C27.1515 71.1591 26.3636 70.5227 25.3636 70.0227C24.3636 69.5227 23.0833 69.2727 21.5227 69.2727C19.3864 69.2727 17.6061 69.7652 16.1818 70.75C14.7727 71.7197 14.0682 72.9545 14.0682 74.4545C14.0682 75.7879 14.553 76.8409 15.5227 77.6136C16.4924 78.3864 18.0076 79.0303 20.0682 79.5455L25.25 80.8182C28.3712 81.5758 30.697 82.7348 32.2273 84.2955C33.7576 85.8409 34.5227 87.8333 34.5227 90.2727C34.5227 92.2727 33.947 94.0606 32.7955 95.6364C31.6591 97.2121 30.0682 98.4545 28.0227 99.3636C25.9773 100.273 23.5985 100.727 20.8864 100.727C17.3258 100.727 14.3788 99.9545 12.0455 98.4091C9.71212 96.8636 8.23485 94.6061 7.61364 91.6364L12.7045 90.3636C13.1894 92.2424 14.1061 93.6515 15.4545 94.5909C16.8182 95.5303 18.5985 96 20.7955 96C23.2955 96 25.2803 95.4697 26.75 94.4091C28.2348 93.3333 28.9773 92.0455 28.9773 90.5455C28.9773 89.3333 28.553 88.3182 27.7045 87.5C26.8561 86.6667 25.553 86.0455 23.7955 85.6364L17.9773 84.2727C14.7803 83.5152 12.4318 82.3409 10.9318 80.75C9.44697 79.1439 8.70455 77.1364 8.70455 74.7273C8.70455 72.7576 9.25758 71.0152 10.3636 69.5C11.4848 67.9848 13.0076 66.7955 14.9318 65.9318C16.8712 65.0682 19.0682 64.6364 21.5227 64.6364C24.9773 64.6364 27.6894 65.3939 29.6591 66.9091C31.6439 68.4242 33.053 70.4242 33.8864 72.9091Z" fill="#0B4747" fill-opacity="0.3"/>
<circle cx="115.584" cy="76.9999" r="8" transform="rotate(4.35087 115.584 76.9999)" fill="#0B4747" fill-opacity="0.5"/>
<path d="M208.168 100H193.804V53.4545H208.804C213.319 53.4545 217.183 54.3864 220.395 56.25C223.607 58.0985 226.069 60.7576 227.781 64.2273C229.493 67.6818 230.35 71.8182 230.35 76.6364C230.35 81.4848 229.486 85.6591 227.759 89.1591C226.031 92.6439 223.516 95.3258 220.213 97.2045C216.91 99.0682 212.895 100 208.168 100ZM199.44 95H207.804C211.653 95 214.842 94.2576 217.372 92.7727C219.903 91.2879 221.789 89.1742 223.031 86.4318C224.274 83.6894 224.895 80.4242 224.895 76.6364C224.895 72.8788 224.281 69.6439 223.054 66.9318C221.827 64.2045 219.993 62.1136 217.554 60.6591C215.115 59.1894 212.077 58.4545 208.44 58.4545H199.44V95ZM249.35 100.818C247.137 100.818 245.13 100.402 243.327 99.5682C241.524 98.7197 240.092 97.5 239.031 95.9091C237.971 94.303 237.44 92.3636 237.44 90.0909C237.44 88.0909 237.834 86.4697 238.622 85.2273C239.41 83.9697 240.463 82.9848 241.781 82.2727C243.1 81.5606 244.554 81.0303 246.145 80.6818C247.751 80.3182 249.365 80.0303 250.986 79.8182C253.107 79.5455 254.827 79.3409 256.145 79.2045C257.478 79.053 258.448 78.803 259.054 78.4545C259.675 78.1061 259.986 77.5 259.986 76.6364V76.4545C259.986 74.2121 259.372 72.4697 258.145 71.2273C256.933 69.9848 255.092 69.3636 252.622 69.3636C250.062 69.3636 248.054 69.9242 246.6 71.0455C245.145 72.1667 244.122 73.3636 243.531 74.6364L238.44 72.8182C239.35 70.697 240.562 69.0455 242.077 67.8636C243.607 66.6667 245.274 65.8333 247.077 65.3636C248.895 64.8788 250.683 64.6364 252.44 64.6364C253.562 64.6364 254.85 64.7727 256.304 65.0455C257.774 65.303 259.19 65.8409 260.554 66.6591C261.933 67.4773 263.077 68.7121 263.986 70.3636C264.895 72.0152 265.35 74.2273 265.35 77V100H259.986V95.2727H259.713C259.35 96.0303 258.743 96.8409 257.895 97.7045C257.047 98.5682 255.918 99.303 254.509 99.9091C253.1 100.515 251.38 100.818 249.35 100.818ZM250.168 96C252.289 96 254.077 95.5833 255.531 94.75C257.001 93.9167 258.107 92.8409 258.85 91.5227C259.607 90.2045 259.986 88.8182 259.986 87.3636V82.4545C259.759 82.7273 259.259 82.9773 258.486 83.2045C257.728 83.4167 256.85 83.6061 255.85 83.7727C254.865 83.9242 253.903 84.0606 252.963 84.1818C252.039 84.2879 251.289 84.3788 250.713 84.4545C249.319 84.6364 248.016 84.9318 246.804 85.3409C245.607 85.7348 244.637 86.3333 243.895 87.1364C243.168 87.9242 242.804 89 242.804 90.3636C242.804 92.2273 243.493 93.6364 244.872 94.5909C246.266 95.5303 248.031 96 250.168 96ZM288.321 100.727C285.412 100.727 282.844 99.9924 280.617 98.5227C278.389 97.0379 276.647 94.947 275.389 92.25C274.132 89.5379 273.503 86.3333 273.503 82.6364C273.503 78.9697 274.132 75.7879 275.389 73.0909C276.647 70.3939 278.397 68.3106 280.639 66.8409C282.882 65.3712 285.473 64.6364 288.412 64.6364C290.685 64.6364 292.48 65.0152 293.798 65.7727C295.132 66.5152 296.147 67.3636 296.844 68.3182C297.556 69.2576 298.109 70.0303 298.503 70.6364H298.957V53.4545H304.321V100H299.139V94.6364H298.503C298.109 95.2727 297.548 96.0758 296.821 97.0455C296.094 98 295.056 98.8561 293.707 99.6136C292.359 100.356 290.564 100.727 288.321 100.727ZM289.048 95.9091C291.2 95.9091 293.018 95.3485 294.503 94.2273C295.988 93.0909 297.117 91.5227 297.889 89.5227C298.662 87.5076 299.048 85.1818 299.048 82.5455C299.048 79.9394 298.67 77.6591 297.912 75.7045C297.154 73.7348 296.033 72.2045 294.548 71.1136C293.064 70.0076 291.23 69.4545 289.048 69.4545C286.776 69.4545 284.882 70.0379 283.367 71.2045C281.867 72.3561 280.738 73.9242 279.98 75.9091C279.238 77.8788 278.867 80.0909 278.867 82.5455C278.867 85.0303 279.245 87.2879 280.003 89.3182C280.776 91.3333 281.912 92.9394 283.412 94.1364C284.927 95.3182 286.806 95.9091 289.048 95.9091Z" fill="#0B4747" fill-opacity="0.3"/>
<circle cx="379.752" cy="76.9999" r="8" transform="rotate(4.35087 379.752 76.9999)" fill="#0B4747" fill-opacity="0.5"/>
<path d="M457.972 53.4545H464.699L480.517 92.0909H481.063L496.881 53.4545H503.608V100H498.335V64.6364H497.881L483.335 100H478.244L463.699 64.6364H463.244V100H457.972V53.4545ZM524.455 100.818C522.243 100.818 520.235 100.402 518.432 99.5682C516.629 98.7197 515.197 97.5 514.137 95.9091C513.076 94.303 512.546 92.3636 512.546 90.0909C512.546 88.0909 512.94 86.4697 513.727 85.2273C514.515 83.9697 515.568 82.9848 516.887 82.2727C518.205 81.5606 519.659 81.0303 521.25 80.6818C522.856 80.3182 524.47 80.0303 526.091 79.8182C528.212 79.5455 529.932 79.3409 531.25 79.2045C532.583 79.053 533.553 78.803 534.159 78.4545C534.78 78.1061 535.091 77.5 535.091 76.6364V76.4545C535.091 74.2121 534.477 72.4697 533.25 71.2273C532.038 69.9848 530.197 69.3636 527.727 69.3636C525.167 69.3636 523.159 69.9242 521.705 71.0455C520.25 72.1667 519.227 73.3636 518.637 74.6364L513.546 72.8182C514.455 70.697 515.667 69.0455 517.182 67.8636C518.712 66.6667 520.379 65.8333 522.182 65.3636C524 64.8788 525.788 64.6364 527.546 64.6364C528.667 64.6364 529.955 64.7727 531.409 65.0455C532.879 65.303 534.296 65.8409 535.659 66.6591C537.038 67.4773 538.182 68.7121 539.091 70.3636C540 72.0152 540.455 74.2273 540.455 77V100H535.091V95.2727H534.818C534.455 96.0303 533.849 96.8409 533 97.7045C532.152 98.5682 531.023 99.303 529.614 99.9091C528.205 100.515 526.485 100.818 524.455 100.818ZM525.273 96C527.394 96 529.182 95.5833 530.637 94.75C532.106 93.9167 533.212 92.8409 533.955 91.5227C534.712 90.2045 535.091 88.8182 535.091 87.3636V82.4545C534.864 82.7273 534.364 82.9773 533.591 83.2045C532.833 83.4167 531.955 83.6061 530.955 83.7727C529.97 83.9242 529.008 84.0606 528.068 84.1818C527.144 84.2879 526.394 84.3788 525.818 84.4545C524.424 84.6364 523.121 84.9318 521.909 85.3409C520.712 85.7348 519.743 86.3333 519 87.1364C518.273 87.9242 517.909 89 517.909 90.3636C517.909 92.2273 518.599 93.6364 519.977 94.5909C521.371 95.5303 523.137 96 525.273 96ZM555.608 79V100H550.244V65.0909H555.426V70.5455H555.881C556.699 68.7727 557.941 67.3485 559.608 66.2727C561.275 65.1818 563.426 64.6364 566.063 64.6364C568.426 64.6364 570.494 65.1212 572.267 66.0909C574.04 67.0455 575.419 68.5 576.404 70.4545C577.388 72.3939 577.881 74.8485 577.881 77.8182V100H572.517V78.1818C572.517 75.4394 571.805 73.303 570.381 71.7727C568.957 70.2273 567.002 69.4545 564.517 69.4545C562.805 69.4545 561.275 69.8258 559.926 70.5682C558.593 71.3106 557.54 72.3939 556.767 73.8182C555.994 75.2424 555.608 76.9697 555.608 79ZM597.955 100.818C595.743 100.818 593.735 100.402 591.932 99.5682C590.129 98.7197 588.697 97.5 587.637 95.9091C586.576 94.303 586.046 92.3636 586.046 90.0909C586.046 88.0909 586.44 86.4697 587.227 85.2273C588.015 83.9697 589.068 82.9848 590.387 82.2727C591.705 81.5606 593.159 81.0303 594.75 80.6818C596.356 80.3182 597.97 80.0303 599.591 79.8182C601.712 79.5455 603.432 79.3409 604.75 79.2045C606.083 79.053 607.053 78.803 607.659 78.4545C608.28 78.1061 608.591 77.5 608.591 76.6364V76.4545C608.591 74.2121 607.977 72.4697 606.75 71.2273C605.538 69.9848 603.697 69.3636 601.227 69.3636C598.667 69.3636 596.659 69.9242 595.205 71.0455C593.75 72.1667 592.727 73.3636 592.137 74.6364L587.046 72.8182C587.955 70.697 589.167 69.0455 590.682 67.8636C592.212 66.6667 593.879 65.8333 595.682 65.3636C597.5 64.8788 599.288 64.6364 601.046 64.6364C602.167 64.6364 603.455 64.7727 604.909 65.0455C606.379 65.303 607.796 65.8409 609.159 66.6591C610.538 67.4773 611.682 68.7121 612.591 70.3636C613.5 72.0152 613.955 74.2273 613.955 77V100H608.591V95.2727H608.318C607.955 96.0303 607.349 96.8409 606.5 97.7045C605.652 98.5682 604.523 99.303 603.114 99.9091C601.705 100.515 599.985 100.818 597.955 100.818ZM598.773 96C600.894 96 602.682 95.5833 604.137 94.75C605.606 93.9167 606.712 92.8409 607.455 91.5227C608.212 90.2045 608.591 88.8182 608.591 87.3636V82.4545C608.364 82.7273 607.864 82.9773 607.091 83.2045C606.333 83.4167 605.455 83.6061 604.455 83.7727C603.47 83.9242 602.508 84.0606 601.568 84.1818C600.644 84.2879 599.894 84.3788 599.318 84.4545C597.924 84.6364 596.621 84.9318 595.409 85.3409C594.212 85.7348 593.243 86.3333 592.5 87.1364C591.773 87.9242 591.409 89 591.409 90.3636C591.409 92.2273 592.099 93.6364 593.477 94.5909C594.871 95.5303 596.637 96 598.773 96ZM637.835 113.818C635.244 113.818 633.017 113.485 631.154 112.818C629.29 112.167 627.737 111.303 626.494 110.227C625.267 109.167 624.29 108.03 623.563 106.818L627.835 103.818C628.32 104.455 628.934 105.182 629.676 106C630.419 106.833 631.434 107.553 632.722 108.159C634.025 108.78 635.729 109.091 637.835 109.091C640.654 109.091 642.979 108.409 644.813 107.045C646.646 105.682 647.563 103.545 647.563 100.636V93.5455H647.108C646.714 94.1818 646.154 94.9697 645.426 95.9091C644.714 96.8333 643.684 97.6591 642.335 98.3864C641.002 99.0985 639.199 99.4545 636.926 99.4545C634.108 99.4545 631.578 98.7879 629.335 97.4545C627.108 96.1212 625.343 94.1818 624.04 91.6364C622.752 89.0909 622.108 86 622.108 82.3636C622.108 78.7879 622.737 75.6742 623.994 73.0227C625.252 70.3561 627.002 68.2955 629.244 66.8409C631.487 65.3712 634.078 64.6364 637.017 64.6364C639.29 64.6364 641.093 65.0152 642.426 65.7727C643.775 66.5152 644.805 67.3636 645.517 68.3182C646.244 69.2576 646.805 70.0303 647.199 70.6364H647.744V65.0909H652.926V101C652.926 104 652.244 106.439 650.881 108.318C649.532 110.212 647.714 111.598 645.426 112.477C643.154 113.371 640.623 113.818 637.835 113.818ZM637.654 94.6364C639.805 94.6364 641.623 94.1439 643.108 93.1591C644.593 92.1742 645.722 90.7576 646.494 88.9091C647.267 87.0606 647.654 84.8485 647.654 82.2727C647.654 79.7576 647.275 77.5379 646.517 75.6136C645.76 73.6894 644.638 72.1818 643.154 71.0909C641.669 70 639.835 69.4545 637.654 69.4545C635.381 69.4545 633.487 70.0303 631.972 71.1818C630.472 72.3333 629.343 73.8788 628.585 75.8182C627.843 77.7576 627.472 79.9091 627.472 82.2727C627.472 84.697 627.851 86.8409 628.608 88.7045C629.381 90.553 630.517 92.0076 632.017 93.0682C633.532 94.1136 635.411 94.6364 637.654 94.6364ZM677.381 100.727C674.017 100.727 671.116 99.9848 668.676 98.5C666.252 97 664.381 94.9091 663.063 92.2273C661.76 89.5303 661.108 86.3939 661.108 82.8182C661.108 79.2424 661.76 76.0909 663.063 73.3636C664.381 70.6212 666.214 68.4848 668.563 66.9545C670.926 65.4091 673.684 64.6364 676.835 64.6364C678.654 64.6364 680.449 64.9394 682.222 65.5455C683.994 66.1515 685.608 67.1364 687.063 68.5C688.517 69.8485 689.676 71.6364 690.54 73.8636C691.404 76.0909 691.835 78.8333 691.835 82.0909V84.3636H664.926V79.7273H686.381C686.381 77.7576 685.987 76 685.199 74.4545C684.426 72.9091 683.32 71.6894 681.881 70.7955C680.457 69.9015 678.775 69.4545 676.835 69.4545C674.699 69.4545 672.851 69.9848 671.29 71.0455C669.744 72.0909 668.555 73.4545 667.722 75.1364C666.888 76.8182 666.472 78.6212 666.472 80.5455V83.6364C666.472 86.2727 666.926 88.5076 667.835 90.3409C668.76 92.1591 670.04 93.5455 671.676 94.5C673.313 95.4394 675.214 95.9091 677.381 95.9091C678.79 95.9091 680.063 95.7121 681.199 95.3182C682.351 94.9091 683.343 94.303 684.176 93.5C685.01 92.6818 685.654 91.6667 686.108 90.4545L691.29 91.9091C690.744 93.6667 689.828 95.2121 688.54 96.5455C687.252 97.8636 685.661 98.8939 683.767 99.6364C681.873 100.364 679.744 100.727 677.381 100.727ZM699.994 100V65.0909H705.176V70.3636H705.54C706.176 68.6364 707.328 67.2348 708.994 66.1591C710.661 65.0833 712.54 64.5455 714.631 64.5455C715.025 64.5455 715.517 64.553 716.108 64.5682C716.699 64.5833 717.146 64.6061 717.449 64.6364V70.0909C717.267 70.0455 716.851 69.9773 716.199 69.8864C715.563 69.7803 714.888 69.7273 714.176 69.7273C712.479 69.7273 710.964 70.0833 709.631 70.7955C708.313 71.4924 707.267 72.4621 706.494 73.7045C705.737 74.9318 705.358 76.3333 705.358 77.9091V100H699.994ZM748.534 72.9091L743.716 74.2727C743.413 73.4697 742.966 72.6894 742.375 71.9318C741.799 71.1591 741.012 70.5227 740.012 70.0227C739.012 69.5227 737.731 69.2727 736.171 69.2727C734.034 69.2727 732.254 69.7652 730.83 70.75C729.421 71.7197 728.716 72.9545 728.716 74.4545C728.716 75.7879 729.201 76.8409 730.171 77.6136C731.14 78.3864 732.655 79.0303 734.716 79.5455L739.898 80.8182C743.019 81.5758 745.345 82.7348 746.875 84.2955C748.405 85.8409 749.171 87.8333 749.171 90.2727C749.171 92.2727 748.595 94.0606 747.443 95.6364C746.307 97.2121 744.716 98.4545 742.671 99.3636C740.625 100.273 738.246 100.727 735.534 100.727C731.974 100.727 729.027 99.9545 726.693 98.4091C724.36 96.8636 722.883 94.6061 722.262 91.6364L727.352 90.3636C727.837 92.2424 728.754 93.6515 730.102 94.5909C731.466 95.5303 733.246 96 735.443 96C737.943 96 739.928 95.4697 741.398 94.4091C742.883 93.3333 743.625 92.0455 743.625 90.5455C743.625 89.3333 743.201 88.3182 742.352 87.5C741.504 86.6667 740.201 86.0455 738.443 85.6364L732.625 84.2727C729.428 83.5152 727.08 82.3409 725.58 80.75C724.095 79.1439 723.352 77.1364 723.352 74.7273C723.352 72.7576 723.905 71.0152 725.012 69.5C726.133 67.9848 727.655 66.7955 729.58 65.9318C731.519 65.0682 733.716 64.6364 736.171 64.6364C739.625 64.6364 742.337 65.3939 744.307 66.9091C746.292 68.4242 747.701 70.4242 748.534 72.9091Z" fill="#0B4747" fill-opacity="0.3"/>
<circle cx="821.919" cy="76.9999" r="8" transform="rotate(4.35087 821.919 76.9999)" fill="#0B4747" fill-opacity="0.5"/>
<path d="M939.412 76.7273C939.412 81.6364 938.526 85.8788 936.753 89.4545C934.98 93.0303 932.549 95.7879 929.458 97.7273C926.367 99.6667 922.836 100.636 918.867 100.636C914.897 100.636 911.367 99.6667 908.276 97.7273C905.185 95.7879 902.753 93.0303 900.98 89.4545C899.208 85.8788 898.321 81.6364 898.321 76.7273C898.321 71.8182 899.208 67.5758 900.98 64C902.753 60.4242 905.185 57.6667 908.276 55.7273C911.367 53.7879 914.897 52.8182 918.867 52.8182C922.836 52.8182 926.367 53.7879 929.458 55.7273C932.549 57.6667 934.98 60.4242 936.753 64C938.526 67.5758 939.412 71.8182 939.412 76.7273ZM933.958 76.7273C933.958 72.697 933.283 69.2955 931.935 66.5227C930.602 63.75 928.791 61.6515 926.503 60.2273C924.23 58.803 921.685 58.0909 918.867 58.0909C916.049 58.0909 913.495 58.803 911.208 60.2273C908.935 61.6515 907.124 63.75 905.776 66.5227C904.442 69.2955 903.776 72.697 903.776 76.7273C903.776 80.7576 904.442 84.1591 905.776 86.9318C907.124 89.7045 908.935 91.803 911.208 93.2273C913.495 94.6515 916.049 95.3636 918.867 95.3636C921.685 95.3636 924.23 94.6515 926.503 93.2273C928.791 91.803 930.602 89.7045 931.935 86.9318C933.283 84.1591 933.958 80.7576 933.958 76.7273ZM948.162 100V65.0909H953.344V70.3636H953.708C954.344 68.6364 955.495 67.2348 957.162 66.1591C958.829 65.0833 960.708 64.5455 962.799 64.5455C963.192 64.5455 963.685 64.553 964.276 64.5682C964.867 64.5833 965.314 64.6061 965.617 64.6364V70.0909C965.435 70.0455 965.018 69.9773 964.367 69.8864C963.73 69.7803 963.056 69.7273 962.344 69.7273C960.647 69.7273 959.132 70.0833 957.799 70.7955C956.48 71.4924 955.435 72.4621 954.662 73.7045C953.905 74.9318 953.526 76.3333 953.526 77.9091V100H948.162ZM985.003 113.818C982.412 113.818 980.185 113.485 978.321 112.818C976.458 112.167 974.905 111.303 973.662 110.227C972.435 109.167 971.458 108.03 970.73 106.818L975.003 103.818C975.488 104.455 976.102 105.182 976.844 106C977.586 106.833 978.602 107.553 979.889 108.159C981.192 108.78 982.897 109.091 985.003 109.091C987.821 109.091 990.147 108.409 991.98 107.045C993.814 105.682 994.73 103.545 994.73 100.636V93.5455H994.276C993.882 94.1818 993.321 94.9697 992.594 95.9091C991.882 96.8333 990.852 97.6591 989.503 98.3864C988.17 99.0985 986.367 99.4545 984.094 99.4545C981.276 99.4545 978.745 98.7879 976.503 97.4545C974.276 96.1212 972.511 94.1818 971.208 91.6364C969.92 89.0909 969.276 86 969.276 82.3636C969.276 78.7879 969.905 75.6742 971.162 73.0227C972.42 70.3561 974.17 68.2955 976.412 66.8409C978.655 65.3712 981.245 64.6364 984.185 64.6364C986.458 64.6364 988.261 65.0152 989.594 65.7727C990.942 66.5152 991.973 67.3636 992.685 68.3182C993.412 69.2576 993.973 70.0303 994.367 70.6364H994.912V65.0909H1000.09V101C1000.09 104 999.412 106.439 998.049 108.318C996.7 110.212 994.882 111.598 992.594 112.477C990.321 113.371 987.791 113.818 985.003 113.818ZM984.821 94.6364C986.973 94.6364 988.791 94.1439 990.276 93.1591C991.761 92.1742 992.889 90.7576 993.662 88.9091C994.435 87.0606 994.821 84.8485 994.821 82.2727C994.821 79.7576 994.442 77.5379 993.685 75.6136C992.927 73.6894 991.806 72.1818 990.321 71.0909C988.836 70 987.003 69.4545 984.821 69.4545C982.549 69.4545 980.655 70.0303 979.139 71.1818C977.639 72.3333 976.511 73.8788 975.753 75.8182C975.011 77.7576 974.639 79.9091 974.639 82.2727C974.639 84.697 975.018 86.8409 975.776 88.7045C976.549 90.553 977.685 92.0076 979.185 93.0682C980.7 94.1136 982.579 94.6364 984.821 94.6364ZM1020.18 100.818C1017.97 100.818 1015.97 100.402 1014.16 99.5682C1012.36 98.7197 1010.93 97.5 1009.87 95.9091C1008.81 94.303 1008.28 92.3636 1008.28 90.0909C1008.28 88.0909 1008.67 86.4697 1009.46 85.2273C1010.25 83.9697 1011.3 82.9848 1012.62 82.2727C1013.93 81.5606 1015.39 81.0303 1016.98 80.6818C1018.59 80.3182 1020.2 80.0303 1021.82 79.8182C1023.94 79.5455 1025.66 79.3409 1026.98 79.2045C1028.31 79.053 1029.28 78.803 1029.89 78.4545C1030.51 78.1061 1030.82 77.5 1030.82 76.6364V76.4545C1030.82 74.2121 1030.21 72.4697 1028.98 71.2273C1027.77 69.9848 1025.93 69.3636 1023.46 69.3636C1020.9 69.3636 1018.89 69.9242 1017.43 71.0455C1015.98 72.1667 1014.96 73.3636 1014.37 74.6364L1009.28 72.8182C1010.18 70.697 1011.4 69.0455 1012.91 67.8636C1014.44 66.6667 1016.11 65.8333 1017.91 65.3636C1019.73 64.8788 1021.52 64.6364 1023.28 64.6364C1024.4 64.6364 1025.68 64.7727 1027.14 65.0455C1028.61 65.303 1030.03 65.8409 1031.39 66.6591C1032.77 67.4773 1033.91 68.7121 1034.82 70.3636C1035.73 72.0152 1036.18 74.2273 1036.18 77V100H1030.82V95.2727H1030.55C1030.18 96.0303 1029.58 96.8409 1028.73 97.7045C1027.88 98.5682 1026.75 99.303 1025.34 99.9091C1023.93 100.515 1022.22 100.818 1020.18 100.818ZM1021 96C1023.12 96 1024.91 95.5833 1026.37 94.75C1027.84 93.9167 1028.94 92.8409 1029.68 91.5227C1030.44 90.2045 1030.82 88.8182 1030.82 87.3636V82.4545C1030.59 82.7273 1030.09 82.9773 1029.32 83.2045C1028.56 83.4167 1027.68 83.6061 1026.68 83.7727C1025.7 83.9242 1024.74 84.0606 1023.8 84.1818C1022.87 84.2879 1022.12 84.3788 1021.55 84.4545C1020.15 84.6364 1018.85 84.9318 1017.64 85.3409C1016.44 85.7348 1015.47 86.3333 1014.73 87.1364C1014 87.9242 1013.64 89 1013.64 90.3636C1013.64 92.2273 1014.33 93.6364 1015.71 94.5909C1017.1 95.5303 1018.87 96 1021 96ZM1051.34 79V100H1045.97V65.0909H1051.16V70.5455H1051.61C1052.43 68.7727 1053.67 67.3485 1055.34 66.2727C1057 65.1818 1059.16 64.6364 1061.79 64.6364C1064.16 64.6364 1066.22 65.1212 1068 66.0909C1069.77 67.0455 1071.15 68.5 1072.13 70.4545C1073.12 72.3939 1073.61 74.8485 1073.61 77.8182V100H1068.25V78.1818C1068.25 75.4394 1067.54 73.303 1066.11 71.7727C1064.69 70.2273 1062.73 69.4545 1060.25 69.4545C1058.54 69.4545 1057 69.8258 1055.66 70.5682C1054.32 71.3106 1053.27 72.3939 1052.5 73.8182C1051.72 75.2424 1051.34 76.9697 1051.34 79ZM1083.41 100V65.0909H1088.78V100H1083.41ZM1086.14 59.2727C1085.09 59.2727 1084.19 58.9167 1083.43 58.2045C1082.69 57.4924 1082.32 56.6364 1082.32 55.6364C1082.32 54.6364 1082.69 53.7803 1083.43 53.0682C1084.19 52.3561 1085.09 52 1086.14 52C1087.18 52 1088.08 52.3561 1088.82 53.0682C1089.58 53.7803 1089.96 54.6364 1089.96 55.6364C1089.96 56.6364 1089.58 57.4924 1088.82 58.2045C1088.08 58.9167 1087.18 59.2727 1086.14 59.2727ZM1097.6 100V95.9091L1117.42 70.4545V70.0909H1098.24V65.0909H1124.33V69.3636L1105.05 94.6364V95H1124.96V100H1097.6ZM1143.5 100.818C1141.29 100.818 1139.28 100.402 1137.47 99.5682C1135.67 98.7197 1134.24 97.5 1133.18 95.9091C1132.12 94.303 1131.59 92.3636 1131.59 90.0909C1131.59 88.0909 1131.98 86.4697 1132.77 85.2273C1133.56 83.9697 1134.61 82.9848 1135.93 82.2727C1137.25 81.5606 1138.7 81.0303 1140.29 80.6818C1141.9 80.3182 1143.51 80.0303 1145.13 79.8182C1147.25 79.5455 1148.97 79.3409 1150.29 79.2045C1151.63 79.053 1152.6 78.803 1153.2 78.4545C1153.82 78.1061 1154.13 77.5 1154.13 76.6364V76.4545C1154.13 74.2121 1153.52 72.4697 1152.29 71.2273C1151.08 69.9848 1149.24 69.3636 1146.77 69.3636C1144.21 69.3636 1142.2 69.9242 1140.75 71.0455C1139.29 72.1667 1138.27 73.3636 1137.68 74.6364L1132.59 72.8182C1133.5 70.697 1134.71 69.0455 1136.22 67.8636C1137.75 66.6667 1139.42 65.8333 1141.22 65.3636C1143.04 64.8788 1144.83 64.6364 1146.59 64.6364C1147.71 64.6364 1149 64.7727 1150.45 65.0455C1151.92 65.303 1153.34 65.8409 1154.7 66.6591C1156.08 67.4773 1157.22 68.7121 1158.13 70.3636C1159.04 72.0152 1159.5 74.2273 1159.5 77V100H1154.13V95.2727H1153.86C1153.5 96.0303 1152.89 96.8409 1152.04 97.7045C1151.19 98.5682 1150.07 99.303 1148.66 99.9091C1147.25 100.515 1145.53 100.818 1143.5 100.818ZM1144.32 96C1146.44 96 1148.22 95.5833 1149.68 94.75C1151.15 93.9167 1152.25 92.8409 1153 91.5227C1153.75 90.2045 1154.13 88.8182 1154.13 87.3636V82.4545C1153.91 82.7273 1153.41 82.9773 1152.63 83.2045C1151.88 83.4167 1151 83.6061 1150 83.7727C1149.01 83.9242 1148.05 84.0606 1147.11 84.1818C1146.19 84.2879 1145.44 84.3788 1144.86 84.4545C1143.47 84.6364 1142.16 84.9318 1140.95 85.3409C1139.75 85.7348 1138.79 86.3333 1138.04 87.1364C1137.32 87.9242 1136.95 89 1136.95 90.3636C1136.95 92.2273 1137.64 93.6364 1139.02 94.5909C1140.41 95.5303 1142.18 96 1144.32 96ZM1184.47 65.0909V69.6364H1166.38V65.0909H1184.47ZM1171.65 56.7273H1177.01V90C1177.01 91.5152 1177.23 92.6515 1177.67 93.4091C1178.13 94.1515 1178.7 94.6515 1179.4 94.9091C1180.11 95.1515 1180.86 95.2727 1181.65 95.2727C1182.24 95.2727 1182.73 95.2424 1183.11 95.1818C1183.48 95.1061 1183.79 95.0455 1184.01 95L1185.11 99.8182C1184.74 99.9545 1184.23 100.091 1183.58 100.227C1182.93 100.379 1182.11 100.455 1181.11 100.455C1179.59 100.455 1178.11 100.129 1176.65 99.4773C1175.21 98.8258 1174.01 97.8333 1173.06 96.5C1172.12 95.1667 1171.65 93.4848 1171.65 91.4545V56.7273ZM1192.54 100V65.0909H1197.9V100H1192.54ZM1195.26 59.2727C1194.22 59.2727 1193.32 58.9167 1192.56 58.2045C1191.82 57.4924 1191.45 56.6364 1191.45 55.6364C1191.45 54.6364 1191.82 53.7803 1192.56 53.0682C1193.32 52.3561 1194.22 52 1195.26 52C1196.31 52 1197.2 52.3561 1197.95 53.0682C1198.7 53.7803 1199.08 54.6364 1199.08 55.6364C1199.08 56.6364 1198.7 57.4924 1197.95 58.2045C1197.2 58.9167 1196.31 59.2727 1195.26 59.2727ZM1221.91 100.727C1218.75 100.727 1215.99 99.9773 1213.61 98.4773C1211.25 96.9773 1209.4 94.8788 1208.07 92.1818C1206.75 89.4848 1206.09 86.3333 1206.09 82.7273C1206.09 79.0909 1206.75 75.9167 1208.07 73.2045C1209.4 70.4924 1211.25 68.3864 1213.61 66.8864C1215.99 65.3864 1218.75 64.6364 1221.91 64.6364C1225.06 64.6364 1227.82 65.3864 1230.18 66.8864C1232.56 68.3864 1234.41 70.4924 1235.72 73.2045C1237.06 75.9167 1237.72 79.0909 1237.72 82.7273C1237.72 86.3333 1237.06 89.4848 1235.72 92.1818C1234.41 94.8788 1232.56 96.9773 1230.18 98.4773C1227.82 99.9773 1225.06 100.727 1221.91 100.727ZM1221.91 95.9091C1224.3 95.9091 1226.27 95.2955 1227.82 94.0682C1229.36 92.8409 1230.5 91.2273 1231.25 89.2273C1231.99 87.2273 1232.36 85.0606 1232.36 82.7273C1232.36 80.3939 1231.99 78.2197 1231.25 76.2045C1230.5 74.1894 1229.36 72.5606 1227.82 71.3182C1226.27 70.0758 1224.3 69.4545 1221.91 69.4545C1219.51 69.4545 1217.54 70.0758 1216 71.3182C1214.45 72.5606 1213.31 74.1894 1212.57 76.2045C1211.82 78.2197 1211.45 80.3939 1211.45 82.7273C1211.45 85.0606 1211.82 87.2273 1212.57 89.2273C1213.31 91.2273 1214.45 92.8409 1216 94.0682C1217.54 95.2955 1219.51 95.9091 1221.91 95.9091ZM1251.28 79V100H1245.91V65.0909H1251.09V70.5455H1251.55C1252.37 68.7727 1253.61 67.3485 1255.28 66.2727C1256.94 65.1818 1259.09 64.6364 1261.73 64.6364C1264.09 64.6364 1266.16 65.1212 1267.93 66.0909C1269.71 67.0455 1271.09 68.5 1272.07 70.4545C1273.06 72.3939 1273.55 74.8485 1273.55 77.8182V100H1268.18V78.1818C1268.18 75.4394 1267.47 73.303 1266.05 71.7727C1264.62 70.2273 1262.67 69.4545 1260.18 69.4545C1258.47 69.4545 1256.94 69.8258 1255.59 70.5682C1254.26 71.3106 1253.21 72.3939 1252.43 73.8182C1251.66 75.2424 1251.28 76.9697 1251.28 79ZM1308.08 72.9091L1303.26 74.2727C1302.96 73.4697 1302.51 72.6894 1301.92 71.9318C1301.34 71.1591 1300.55 70.5227 1299.55 70.0227C1298.55 69.5227 1297.27 69.2727 1295.71 69.2727C1293.58 69.2727 1291.8 69.7652 1290.37 70.75C1288.96 71.7197 1288.26 72.9545 1288.26 74.4545C1288.26 75.7879 1288.74 76.8409 1289.71 77.6136C1290.68 78.3864 1292.2 79.0303 1294.26 79.5455L1299.44 80.8182C1302.56 81.5758 1304.89 82.7348 1306.42 84.2955C1307.95 85.8409 1308.71 87.8333 1308.71 90.2727C1308.71 92.2727 1308.14 94.0606 1306.99 95.6364C1305.85 97.2121 1304.26 98.4545 1302.21 99.3636C1300.17 100.273 1297.79 100.727 1295.08 100.727C1291.52 100.727 1288.57 99.9545 1286.24 98.4091C1283.9 96.8636 1282.43 94.6061 1281.8 91.6364L1286.9 90.3636C1287.38 92.2424 1288.3 93.6515 1289.65 94.5909C1291.01 95.5303 1292.79 96 1294.99 96C1297.49 96 1299.47 95.4697 1300.94 94.4091C1302.43 93.3333 1303.17 92.0455 1303.17 90.5455C1303.17 89.3333 1302.74 88.3182 1301.9 87.5C1301.05 86.6667 1299.74 86.0455 1297.99 85.6364L1292.17 84.2727C1288.97 83.5152 1286.62 82.3409 1285.12 80.75C1283.64 79.1439 1282.9 77.1364 1282.9 74.7273C1282.9 72.7576 1283.45 71.0152 1284.55 69.5C1285.68 67.9848 1287.2 66.7955 1289.12 65.9318C1291.06 65.0682 1293.26 64.6364 1295.71 64.6364C1299.17 64.6364 1301.88 65.3939 1303.85 66.9091C1305.83 68.4242 1307.24 70.4242 1308.08 72.9091Z" fill="#0B4747" fill-opacity="0.3"/>
<circle cx="1382.09" cy="76.9999" r="8" transform="rotate(4.35087 1382.09 76.9999)" fill="#0B4747" fill-opacity="0.5"/>
</svg>
