<svg width="48" height="48" viewBox="0 0 48 48" fill="none" xmlns="http://www.w3.org/2000/svg">
<circle cx="24" cy="24" r="24" fill="#FF3E49"/>
<path d="M23.8636 14L16.5 17.3674V22.4184C16.5 27.0906 19.6418 31.4598 23.8636 32.5205C28.0855 31.4598 31.2273 27.0906 31.2273 22.4184V17.3674L23.8636 14ZM23.8636 17.3674C24.5146 17.3674 25.1389 17.6335 25.5993 18.1071C26.0596 18.5807 26.3182 19.2231 26.3182 19.8929C26.3182 20.5627 26.0596 21.2051 25.5993 21.6787C25.1389 22.1523 24.5146 22.4184 23.8636 22.4184C23.2127 22.4184 22.5883 22.1523 22.128 21.6787C21.6677 21.2051 21.4091 20.5627 21.4091 19.8929C21.4091 19.2231 21.6677 18.5807 22.128 18.1071C22.5883 17.6335 23.2127 17.3674 23.8636 17.3674ZM28.0609 27.4695C27.0696 29.0308 25.5882 30.1955 23.8636 30.7695C22.1391 30.1955 20.6577 29.0308 19.6664 27.4695C19.3882 27.0486 19.1509 26.6276 18.9545 26.1815C18.9545 24.7924 21.1718 23.6559 23.8636 23.6559C26.5555 23.6559 28.7727 24.7672 28.7727 26.1815C28.5764 26.6276 28.3391 27.0486 28.0609 27.4695Z" fill="#FFF3F5"/>
</svg>
