<svg width="48" height="49" viewBox="0 0 48 49" fill="none" xmlns="http://www.w3.org/2000/svg">
<circle cx="24" cy="24.2803" r="24" fill="#FF3E49"/>
<path d="M23.9997 18C22.2444 18 20.52 18.4621 18.9998 19.3398C17.4797 20.2175 16.2173 21.4799 15.3397 23.0001C14.462 24.5203 14 26.2447 14 28.0001C14 29.7554 14.4621 31.4798 15.3397 33C15.4724 33.2307 15.6912 33.3993 15.9481 33.4687C16.205 33.5381 16.479 33.5026 16.7097 33.37C16.9405 33.2374 17.1091 33.0186 17.1785 32.7616C17.2479 32.5047 17.2124 32.2307 17.0797 32C16.3712 30.7861 15.9984 29.4055 15.9997 28C16.0002 26.7732 16.2828 25.5629 16.8258 24.4628C17.3687 23.3626 18.1574 22.4021 19.1308 21.6554C20.1042 20.9087 21.2363 20.396 22.4396 20.1567C23.6429 19.9175 24.885 19.9582 26.0701 20.2756C27.2551 20.5931 28.3512 21.1789 29.2737 21.9877C30.1962 22.7965 30.9203 23.8066 31.39 24.9399C31.8598 26.0732 32.0626 27.2994 31.9828 28.5236C31.903 29.7478 31.5427 30.9373 30.9297 32C30.8636 32.1141 30.8207 32.2402 30.8036 32.371C30.7864 32.5018 30.7952 32.6347 30.8296 32.762C30.864 32.8893 30.9233 33.0086 31.0039 33.113C31.0846 33.2173 31.1852 33.3047 31.2997 33.37C31.5294 33.5004 31.8012 33.5346 32.056 33.4653C32.3108 33.396 32.5278 33.2287 32.6597 33C33.5374 31.4798 33.9995 29.7554 33.9995 28.0001C33.9995 26.2447 33.5375 24.5203 32.6598 23.0001C31.7822 21.4799 30.5198 20.2175 28.9997 19.3398C27.4795 18.4621 25.7551 18 23.9997 18ZM26.8397 23.76L25.2897 25.3C24.8885 25.1022 24.4471 24.9995 23.9997 25C23.4064 25 22.8264 25.1759 22.333 25.5056C21.8397 25.8352 21.4552 26.3038 21.2281 26.8519C21.001 27.4001 20.9416 28.0033 21.0574 28.5853C21.1731 29.1672 21.4589 29.7018 21.8784 30.1213C22.298 30.5409 22.8325 30.8266 23.4145 30.9424C23.9964 31.0581 24.5996 30.9987 25.1478 30.7716C25.696 30.5446 26.1645 30.1601 26.4942 29.6667C26.8238 29.1734 26.9997 28.5933 26.9997 28C26.9991 27.556 26.8964 27.1181 26.6997 26.72L28.2497 25.18C28.3435 25.087 28.4179 24.9764 28.4686 24.8546C28.5194 24.7327 28.5455 24.602 28.5455 24.47C28.5455 24.338 28.5194 24.2073 28.4686 24.0854C28.4179 23.9636 28.3435 23.853 28.2497 23.76C28.0624 23.5737 27.8089 23.4692 27.5447 23.4692C27.2806 23.4692 27.0271 23.5737 26.8397 23.76ZM23.9997 29C23.7345 29 23.4802 28.8946 23.2926 28.7071C23.1051 28.5196 22.9997 28.2652 22.9997 28C22.9997 27.7348 23.1051 27.4804 23.2926 27.2929C23.4802 27.1054 23.7345 27 23.9997 27C24.2607 26.9984 24.5119 27.0989 24.6997 27.28C24.7954 27.3738 24.8713 27.4859 24.9228 27.6095C24.9744 27.7332 25.0005 27.866 24.9997 28C24.9997 28.2652 24.8944 28.5196 24.7069 28.7071C24.5193 28.8946 24.265 29 23.9997 29Z" fill="white"/>
</svg>
